<svg xmlns="http://www.w3.org/2000/svg" xmlns:xlink="http://www.w3.org/1999/xlink" width="335.884" height="249.489" viewBox="0 0 335.884 249.489" preserveAspectRatio="none">
    <defs>
        <clipPath id="clip-path">
            <rect id="Rechteck_3980" width="335.884" height="249.489" fill="none"/>
        </clipPath>
    </defs>
    <g id="Entscheidungskarte_1" transform="translate(-41.558 -389.914)">
        <g id="Gruppe_6354" transform="translate(41.558 389.914)">
            <g id="Gruppe_6353" clip-path="url(#clip-path)">
                <path id="Pfad_45832" d="M280.912,1.567c-49.422.2-44.3.837-93.714.4-29.649-.261-98.632.229-143.363-.183C12.826,1.5,1.55,6.043,1.55,33.645c0,55.5,1.455,124.623,2.39,186.464.089,5.837,1.955,13.681,8.188,18.549,13.044,10.188,29.53,9.489,53.165,9.167,76.915-1.047,221.606-.432,237.821-1.141,16.717-.73,31.155-5.107,31.2-23.544.166-60.6.013-165.283-.475-198.208C333.654,12.07,323.774,1.5,310.91,1.5Z" fill="#fff"/>
                <path id="Pfad_45833" d="M280.912.067c-17.582.071-35.161.35-52.742.5C210.279.715,192.39.45,174.5.4c-20.093-.053-40.185.015-60.277.04C92.371.47,70.519.49,48.669.325,39.7.257,30.583-.02,21.726,1.657,15.691,2.8,9.688,5.173,5.808,10.145,1.492,15.677.423,23.023.128,29.837-.111,35.349.053,40.893.073,46.408q.035,9.159.106,18.316c.2,26.3.59,52.6,1.014,78.894q.323,20.078.664,40.154.168,10.066.33,20.132c.1,6.089-.169,12.31.367,18.377A26.516,26.516,0,0,0,7.361,235.87c2.865,3.833,7.081,6.6,11.388,8.582,8.783,4.053,18.622,4.81,28.168,4.983,10.109.183,20.231-.146,30.34-.254q13.29-.143,26.582-.225,29.342-.195,58.685-.247,29.235-.073,58.471-.1,24.507-.033,49.013-.095c9.939-.034,19.882-.028,29.82-.235,12.957-.269,29.882-2.066,34.688-16.4,1.459-4.35,1.305-8.921,1.315-13.446q.017-6.864.027-13.728.022-14.824.025-29.649.008-31.9-.061-63.8-.061-28.326-.211-56.653-.063-10.606-.164-21.212c-.075-7.354.226-14.66-3.625-21.263A24.472,24.472,0,0,0,310.646,0c-5.462-.008-10.924.024-16.386.037L280.912.067a1.5,1.5,0,0,0,0,3c9.911-.022,19.823-.081,29.734-.066A21.557,21.557,0,0,1,330.53,16.22c2.609,6.166,1.884,13.415,1.945,19.985q.223,24.073.272,48.148.106,30.66.127,61.321.025,30.162-.018,60.324-.01,6.616-.027,13.232c-.01,4.444.1,8.919-1.668,13.1-3.245,7.677-11.364,10.722-19.03,11.993-8.7,1.441-17.805,1.061-26.6,1.12-13.694.091-27.388.112-41.082.135q-27.112.047-54.226.078-29.426.048-58.851.157-27.156.114-54.311.373c-9.875.106-19.762.416-29.637.26-9.4-.148-19.3-.739-27.9-4.93-4.316-2.1-8.437-4.93-10.9-9.151-2.582-4.427-3.144-9.316-3.22-14.337q-.3-19.432-.629-38.865-.659-39.518-1.229-79.037-.243-18.845-.389-37.691-.066-8.976-.1-17.952C3.05,39.208,2.875,33.9,3.19,28.637,3.564,22.359,4.733,15.374,9.3,10.681,13.638,6.223,20.128,4.718,26.094,4c9.284-1.122,18.709-.692,28.037-.636q15.773.094,31.545.093c21.564.015,43.128-.042,64.692-.063,18.434-.017,36.864.124,55.3.2,14.78.064,29.552-.119,44.33-.294q15.457-.183,30.917-.234a1.5,1.5,0,0,0,0-3"/>
            </g>
        </g>
    </g>
</svg>
