<svg id="Icon_Arrow_gezeichnet_rechts" data-name="Icon_Arrow gezeichnet rechts" xmlns="http://www.w3.org/2000/svg" width="64.31" height="23.045" viewBox="0 0 64.31 23.045">
    <path id="Pfad_45837" d="M63.927,12.325c-.382-.427-.815-.909-8.955-1.4-6.7-.4-20.528-.877-48.443-.9.817-1.012,3.219-2.906,4.247-3.975,1.193-1.235,3.237-3.407,3.237-4.387l0,0C14.011.766,13.329,0,11.8,0a2.507,2.507,0,0,0-2,1.065C9.114,1.917,4.813,6.9,3.833,8.05,2.981,9.076,0,12.185,0,13.25c0,1.576,2.261,2.342,2.9,2.683a61.654,61.654,0,0,1,6.045,4.088c1.406,1.024,4,3.024,4.6,3.024.894,0,2.555-1.065,2.555-2.13,0-.723-1.15-1.49-2.129-1.916a21.846,21.846,0,0,1-4.127-2.938C9.377,15.7,7.3,14.244,5.588,13.027c49.068.025,55.772,1.408,56.544,1.638a1.5,1.5,0,0,0,1.795-2.34" transform="translate(64.31 23.045) rotate(180)" fill="#5d5d95"/>
</svg>
