<svg xmlns="http://www.w3.org/2000/svg" width="290.491" height="308.346" viewBox="0 0 290.491 308.346" preserveAspectRatio="none">
    <g id="Erzählebene" transform="translate(0.991 0.853)">
        <g id="Erzählblase" transform="translate(0 0)">
            <g id="Gruppe_6371" transform="translate(0 0)">
                <path id="Pfad_8406" d="M1.106,258.368c-.082,33.119,3.108,49.125,15.867,49.125S217.42,306.142,265.945,307c23.064,1.1,23.555-13.249,23.555-40.847-.832-48.666-.672-223.943-.672-241.824S287.11,1.148,273.616,1.148C247.1.489,42.8,2.252,19.426,2.252c-19.874,0-18.4,23.242-18.4,38.086s.208,166.619.082,218.03" transform="translate(-1 -1)" fill="#8787d6"/>
                <path id="Pfad_8407" d="M1.106,258.368c-.082,33.119,3.108,49.125,15.867,49.125S217.42,306.142,265.945,307c23.064,1.1,23.555-13.249,23.555-40.847-.832-48.666-.672-223.943-.672-241.824S287.11,1.148,273.616,1.148C247.1.489,42.8,2.252,19.426,2.252c-19.874,0-18.4,23.242-18.4,38.086S1.233,206.958,1.106,258.368Z" transform="translate(-1 -1)" fill="#8787d6" stroke="#121228" stroke-width="2"/>
            </g>
        </g>
    </g>
</svg>
