<svg xmlns="http://www.w3.org/2000/svg" width="129.9" height="49.293" viewBox="0 0 129.9 49.293">
    <g id="Icon_Lesezeichen" transform="translate(0.994 1)">
        <path id="Pfad_45847" d="M111.849,23.836q2.694-2.927,5.312-5.924a102.4,102.4,0,0,0,9.223-11.584c.733-1.139,1.835-2.745,1.465-4.181A2.009,2.009,0,0,0,125.975.674C124.229.5,122.432.53,120.678.5c-7.72-.119-15.436.2-23.155.15C83.7.565,69.883.021,56.059,0,47.237-.012,38.415.15,29.593.131,24.568.12,19.542.1,14.517.132,10.366.156,5.691-.48,2.5,2.756-.337,5.638.013,9.418.014,13.145q0,6.13,0,12.261,0,5.363.006,10.726a22.69,22.69,0,0,0,.195,4.492,8.281,8.281,0,0,0,2.84,4.651,8.632,8.632,0,0,0,5.248,1.933l17.84.007,39.445.015,39.741.015,13.684.006c1.924,0,3.879.1,5.8,0,5.422-.286-.713-8.3-1.886-9.893-3.449-4.695-7.23-9.156-11.082-13.524" transform="translate(0 0)" fill="#ff8900" stroke="#121328" stroke-linecap="round" stroke-width="2"/>
    </g>
</svg>
