<svg xmlns="http://www.w3.org/2000/svg" width="116.331" height="37" viewBox="0 0 116.331 37" preserveAspectRatio="none">
    <g id="Talking_Person" transform="translate(-1 0.109)">
        <g id="Rahmen" transform="translate(1 -0.109)">
            <path id="bg" d="M36,34.512l-30.389-.5c-2.242-.037-4.044-2.265-4.048-5.011,0-4.258-.007-15.362-.007-21.958,0-2.852,1.866-5.172,4.2-5.215,8-.146,25-.428,28.944-.279,4.143.157,22.952.341,31.924.162,6.222-.124,21.055.273,27.274.439,3.593.1,12.339-.328,17.752.026,2.328.153,4.146,2.5,4.142,5.359-.008,5.948-.017,15.593.009,20.4.019,3.28-2.094,5.983-4.77,6.112Z" transform="translate(-0.471 0.488)" fill="#545483"/>
            <path id="Kontur" d="M116.318,22.15q-.006-6.966.007-13.932a8.638,8.638,0,0,0-1.6-5.591,5.444,5.444,0,0,0-4.408-1.97C106.709.48,103.091.57,99.48.638,87.817.855,76.155.085,64.49.254,53.9.407,43.306.155,32.713.022,26.992-.05,21.269.075,15.548.165Q11.012.237,6.477.322C4.994.35,3.562.368,2.29,1.5A7.372,7.372,0,0,0,.041,6.718c-.087,2.136,0,4.305,0,6.445q0,3.421,0,6.844,0,3.118,0,6.237A33.62,33.62,0,0,0,.159,31.42c.5,3.09,2.68,5.008,5.052,5.064,1.076.025,2.152.036,3.228.055l25.083.429L35.457,37l12.458-.08,27.008-.175,26.011-.168,7.748-.049c2.307-.015,4.521-.075,6.2-2.6a9.993,9.993,0,0,0,1.445-5.79q-.013-3-.013-5.992m-1.884,8.021a4.16,4.16,0,0,1-4.515,4.042l-5.971.038-23.685.154-27.357.177-16.645.108-.8,0-20.716-.354-9.35-.16c-1.96-.034-3.531-1.617-3.551-4.27-.029-3.773,0-7.549-.005-11.323q0-3.268,0-6.537,0-1.58,0-3.162a16.465,16.465,0,0,1,.084-2.883A3.739,3.739,0,0,1,5.139,2.653C6.42,2.588,7.705,2.6,8.987,2.582c6.181-.111,12.363-.216,18.546-.256,9.838-.064,19.678.29,29.517.282,5.394,0,10.786-.138,16.18-.073,6.2.075,12.4.238,18.6.411,6.163.172,12.329-.285,18.491.018a3.775,3.775,0,0,1,3.712,2.216c.795,1.7.5,4,.494,5.91q-.007,6.884,0,13.769a30.01,30.01,0,0,1-.093,5.313" transform="translate(0 0)"/>
        </g>
    </g>
</svg>
