<svg xmlns="http://www.w3.org/2000/svg" xmlns:xlink="http://www.w3.org/1999/xlink" width="380" height="116.074" viewBox="0 0 380 116.074" preserveAspectRatio="none">
    <defs>
        <clipPath id="clip-path">
            <rect id="Rechteck_3377" width="380" height="116.074" fill="none"/>
        </clipPath>
    </defs>
    <g id="Gruppe_5665" clip-path="url(#clip-path)">
        <path id="Pfad_8406" d="M1.139,97.388c-.107,12.4,4.072,18.4,20.789,18.4s262.631-.506,326.21-.184c30.219.413,30.862-4.962,30.862-15.3-1.09-18.226-.88-83.87-.88-90.566s-2.251-8.682-19.932-8.682c-34.744-.247-302.415.414-333.046.414-26.039,0-24.11,8.7-24.11,14.264s.273,62.4.107,81.655" transform="translate(0 -0.356)" fill="#fff"/>
        <path id="Pfad_8407" d="M1.139,97.388c-.107,12.4,4.072,18.4,20.789,18.4s262.631-.506,326.21-.184c30.219.413,30.862-4.962,30.862-15.3-1.09-18.226-.88-83.87-.88-90.566s-2.251-8.682-19.932-8.682c-34.744-.247-302.415.414-333.046.414-26.039,0-24.11,8.7-24.11,14.264S1.3,78.134,1.139,97.388Z" transform="translate(0 -0.356)" fill="none" stroke="#000" stroke-width="2"/>
    </g>
</svg>
