<svg id="Menu" xmlns="http://www.w3.org/2000/svg" width="32" height="32" viewBox="0 0 32 32">
    <g id="Menu_Burger" data-name="Menu Burger">
        <rect id="Container" width="32" height="32" fill="none"/>
        <path id="Pfad_45730" data-name="Pfad 45730" d="M1.058,1.908c4.263-.106,8.544.1,12.808.1q6.593,0,13.186-.006a.941.941,0,0,0,0-1.877Q20.46.134,13.867.133C9.6.13,5.322-.075,1.058.031c-1.167.029-1.172,1.906,0,1.877" transform="translate(1.819 4.356)" fill="#ff8900"/>
        <path id="Pfad_45731" data-name="Pfad 45731" d="M27.054,8.555c-4.263-.106-8.543.1-12.808.1q-6.593,0-13.186-.006a.941.941,0,0,0,0,1.877q6.593.008,13.186.006c4.266,0,8.545-.208,12.808-.1,1.17.029,1.169-1.848,0-1.877" transform="translate(1.819 6.5)" fill="#ff8900"/>
        <path id="Pfad_45732" data-name="Pfad 45732" d="M1.673,18.907c2.2-.058,4.4.051,6.6.084,1.842.028,3.688.016,5.533.018q6.244,0,12.489-.006c2.233,0,2.238-1.881,0-1.877q-6.244.008-12.489.006c-1.773,0-3.545.009-5.315-.015-2.27-.029-4.545-.146-6.817-.086-2.224.059-2.238,1.936,0,1.877" transform="translate(2 8.634)" fill="#ff8900"/>
    </g>
</svg>
