<svg id="Icon-Kreis-Scriblle-groß" xmlns="http://www.w3.org/2000/svg" width="148.174" height="145.767" viewBox="0 0 148.174 145.767">
    <g>
        <path d="M643.836,120.923c-.072-.083-.147-.165-.22-.248a1.057,1.057,0,0,0-.236.425l.456-.178" transform="translate(-513.935 -96.677)" fill="#ff8900"/>
        <path d="M633.162,621.941a6.431,6.431,0,0,0-.88.912c.3-.3.588-.607.88-.912" transform="translate(-505.07 -498.258)" fill="#ff8900"/>
        <path d="M634.664,597.924c-.223.254-.452.5-.68.756a1.127,1.127,0,0,0,.68-.756" transform="translate(-506.429 -479.017)" fill="#ff8900"/>
        <path d="M602.829,92.694a4.164,4.164,0,0,0-2.544-.246q1.57,1.326,3.051,2.748a7.566,7.566,0,0,0,2.475-.842c-.075-.075-.153-.147-.228-.221-.454,0-.434-.194-.417-.4-.168-.162-.335-.326-.5-.486a4.514,4.514,0,0,0-.9.04c-1.459.428.476.843-1.646.715.237-.893,1.351-.848,2.3-.975q-.4-.376-.811-.745c-.257.055-.471.1-.595.125Z" transform="translate(-479.51 -73.929)" fill="#ff8900"/>
        <path d="M619.855,111.282c.232.231.46.468.688.7.189-.33.007-.621-.688-.7" transform="translate(-495.143 -89.152)" fill="#ff8900"/>
        <path d="M627.666,117.618c-.532.007-1.076-.026-1.677,0q.537.566,1.062,1.143c.15-.323.342-.612.614-1.14" transform="translate(-500.043 -94.219)" fill="#ff8900"/>
        <path d="M472.835,19.516l-.917.5.879-.592c-.268-.459-1.518.349-2.539.212-.613.7,1.282.952,3.667,1.119l-1.132.387a61.6,61.6,0,0,1,7.168,2.446c2.4-.694-1.212-.872.255-1.675l1.085.144a1.606,1.606,0,0,0,.546-.34c-.281-.126-.562-.255-.846-.376a8.214,8.214,0,0,0-2.409.354c.114-.335,1.162-.459,2-.522a64.418,64.418,0,0,0-6.794-2.425l-1,.676a.366.366,0,0,1,.038.091" transform="translate(-375.551 -15.021)" fill="#ff8900"/>
        <path d="M90.308,590.181q.514.515,1.038,1.02c.033-.011.058-.015.092-.027-.123-.482,3.25-1.59.176-1.379.994-.176,3.535-.461,2.573-.122a1.342,1.342,0,0,0,.826.013q-1.013-.941-1.986-1.924a5.754,5.754,0,0,1-1.9.092,2.55,2.55,0,0,1,.953-1.074A68.826,68.826,0,0,1,87,580.8c-.6,1.655-1.371,3.68-1.209,4.385q2.05,2.505,4.329,4.811c.183,0,.428.008.76.017a2.682,2.682,0,0,0-.572.171" transform="translate(-68.513 -465.296)" fill="#ff8900"/>
        <path d="M2.06,73.3c.375-.066.825-.167,1.32-.284q-.129-2.419-.115-4.869a2.741,2.741,0,0,0-.666.079,2.1,2.1,0,0,1,.668-.416c.02-2.132.115-4.277.3-6.434l-1.756.658,1.6-.878.177.025q.153-1.754.378-3.517c4.46-32.846,33.43-55.58,68.626-55.051-.006-.9-2.729-.617-1.308-1.92,1.04-.018.5-.088.589.232,2.729-.489,1.011,1.149.745,1.688q2.368.036,4.773.217a2.832,2.832,0,0,0,1.16-.226,1.641,1.641,0,0,1-.21.3c.4.035.8.075,1.206.115a5.478,5.478,0,0,1,1.768-.821c-.618-.4-1.726.391-2.612-.042l2.986-.535L81.449.648c-.571.86-3.729.75-3.84,1.36l-.385-.248c-.064,0-.122.012-.189.013l-.352-.36.541.347A4.175,4.175,0,0,0,79.185.968C80.525.839,80.993.628,81.03.4Q79.544.243,78.057.148c-.042.009-.077.019-.123.027-.215.016-.212,0-.093-.042A74.19,74.19,0,0,0,43.8,6.278a1.972,1.972,0,0,0,.332.43A3.718,3.718,0,0,1,42.9,6.675C21.226,16.406,4.352,35.83.636,58.608a88.382,88.382,0,0,0-.6,13.246l.06-.068c.624.395.79,1.044,1.959,1.509" transform="translate(0 0)" fill="#ff8900"/>
        <path d="M79.33,586.538c.107.06.217.119.323.181l.2-.8a2.2,2.2,0,0,1-.522.621" transform="translate(-63.369 -469.398)" fill="#ff8900"/>
        <path d="M44.366,527.193l.6-.073q-.482-.773-.946-1.557l-.008.7-.735.348.654-1.2q-.794-1.352-1.531-2.745l-.59.585c.027-.164.274-.379.576-.61-.311-.587-.616-1.177-.912-1.772l-.543.1c-.676.2-1.425.469-2.16.637-.265-.038,1.612-.877.713-1.309a9.207,9.207,0,0,1-1.856.851,74.938,74.938,0,0,0,4.633,8.515c1.955-.986,1.911-1.352,2.107-2.47" transform="translate(-30.056 -416.828)" fill="#ff8900"/>
        <path d="M71.047,575.368a.358.358,0,0,1,.141.146c.008-.04.017-.082.024-.122l-.165-.024" transform="translate(-56.753 -460.947)" fill="#ff8900"/>
        <path d="M25.922,484.547l.966-.173c.181-.052.356-.1.525-.133a76.059,76.059,0,0,1-3.294-7.693,3.356,3.356,0,0,1-1.329-.227l-1.448.517a2.641,2.641,0,0,1-.469.167l.469-.167c1.071-.509-.5-1.173,1.976-1.536l-1.3,1.074a4.193,4.193,0,0,1,1.951-.231c-.179-.5-.351-1-.519-1.5l-.565-.028c.344.622-1.434.62-2.837.887q1.109,3.444,2.512,6.75a3.462,3.462,0,0,0,.576-.081l.063-.182.036.161-.1.02-.249.716c-.018,0-.034,0-.052,0,.157.36.312.72.475,1.077a3.26,3.26,0,0,0,2.323-.547c-.066.772,1.893.255.29,1.133" transform="translate(-16.014 -380.233)" fill="#ff8900"/>
        <path d="M6.879,402.024c-.37.122.292.245-1.348-.081-.2.292-1.023,1.112-1.117.792.415-.477-.153-.505-.873-.417q.1.8.22,1.59c.831-.516,1.67-.487,3.305-.641-.064-.414-.129-.827-.187-1.243" transform="translate(-2.828 -322.01)" fill="#ff8900"/>
        <path d="M.986,369.2a5.7,5.7,0,0,0,2.918-.19q-.039-.573-.069-1.148a17.876,17.876,0,0,1-3.277.488c.017.345.041.69.063,1.034l.509-.63Z" transform="translate(-0.446 -294.71)" fill="#ff8900"/>
        <path d="M4.874,413.439l.045.305c.388-.2.643-.351-.045-.305" transform="translate(-3.893 -331.214)" fill="#ff8900"/>
        <path d="M1.666,379.867a5.141,5.141,0,0,1,2.752-1.443c0-.009,0-.017,0-.026-.45-.058-.327-.175-.028-.313-.023-.248-.041-.5-.063-.746-.207.148-.738.379-1.213.614a2.161,2.161,0,0,1-.689.764c-.452-.142.067-.456.689-.764.332-.673-.062-1.326-2.14-1.073q.12,1.83.318,3.644l2-.44Z" transform="translate(-0.776 -301.887)" fill="#ff8900"/>
        <path d="M239.911,673.866c-1.959.516-2.139-1.226-1.366-1.275l.76-.055a1.707,1.707,0,0,1-.318-.17,68.629,68.629,0,0,1-7.1,2.554c-.461.2-.629.235-.685.195-.374.108-.749.214-1.126.315a.284.284,0,0,0,.089.088c-.082-.011-.168-.028-.255-.046a59.9,59.9,0,0,1-30.068.406A64.975,64.975,0,0,1,174.5,667.26c-.471.6.506.922-.059,1.392l-1.959-.123a3.512,3.512,0,0,1-1.069.865,65.357,65.357,0,0,0,8.156,4.152,4.6,4.6,0,0,0,1.026-.548,3.094,3.094,0,0,1-.332-.138l-.064,0-1.257.139.911-.5c.037.142.2.262.41.365.3.011.385.061.332.138.785.275,1.841.415,1.356.557l-.589-.231-.74.663a70.188,70.188,0,0,0,18.749,4.651,67.025,67.025,0,0,0,23.176,1.191l.09-.016-.018.007a68.5,68.5,0,0,0,12.8-2.849c.091-.082.178-.163.256-.24.046.028.032.085-.009.157q2.838-.936,5.586-2.115a4.063,4.063,0,0,1,.609-1.426c-.994.175-1.76.228-1.953.517m-36.6,4.493c.344-.039.521-.033.216.133a.305.305,0,0,1-.216-.133c-.69.079-2.065.342-1.659-.125,1.484-.814,1.437-.177,1.659.125" transform="translate(-136.924 -534.565)" fill="#ff8900"/>
        <path d="M650.136,165.883a11.307,11.307,0,0,1-2.781.114c.116.187.233.374.348.563a8.275,8.275,0,0,0,1.295-.05c1.273-.09.29.8-.432,1.511a72.527,72.527,0,0,1,8.669,47.475,64.9,64.9,0,0,1-15.019,33.953,5.106,5.106,0,0,0,1.968.05l-1.59.873c1.11.154,2.065-.364,3.373-.676.188-.244.377-.489.562-.735-.623.005-1.531.114-1.736-.162l1.537-.105.487-1.183c.317-.045.609-.1.886-.158q1.247-1.755,2.392-3.594c-.318.077-.568.049-.646-.262a2.2,2.2,0,0,0,.931-.193c.048-.078.1-.155.143-.233,0-.121-.045-.249.03-.36-.933-.594.257-1.064,1.12-1.718a1.5,1.5,0,0,0-.236.533,72.877,72.877,0,0,0,9.07-27.042,73.941,73.941,0,0,0-11.231-50.109c-.789.651-.129,1.237.86,1.51" transform="translate(-513.004 -131.685)" fill="#ff8900"/>
        <path d="M637.407,128.951a4.323,4.323,0,0,1-1.244.011c.137.159.272.32.408.48.491-.105.887-.282.836-.491" transform="translate(-508.17 -103.307)" fill="#ff8900"/>
        <path d="M641.667,132.111c-.884.318-.222.571.647.336.069-.019.138-.039.208-.064-.07.025-.14.046-.208.064a1.232,1.232,0,0,1-.926.248l.007.009c1.931.294,1.815,1.219,4.064,1.293q-.7-.93-1.434-1.836l-.2.242c-1.228.308.528-1.02-2.161-.292" transform="translate(-512.233 -105.661)" fill="#ff8900"/>
        <path d="M71.778,584.191A1.858,1.858,0,0,0,72,584.1a.81.81,0,0,0-.4-.161c.058.083.119.164.179.247" transform="translate(-57.194 -467.818)" fill="#ff8900"/>
        <path d="M641.8,123.9l1.45-.258q-.7-.856-1.432-1.692c-2.308.845.265,1.107-.018,1.949" transform="translate(-511.912 -97.697)" fill="#ff8900"/>
        <path d="M68.893,577.085a2.306,2.306,0,0,1-.671.385q.219.319.44.636c.08-.339.161-.677.231-1.021" transform="translate(-54.496 -462.323)" fill="#ff8900"/>
        <path d="M613.275,599.086c.253-.306.507-.611.755-.921-2.02.179-2.506.7-5.013,1.089l-.082.09c.31.3.472.362-.64.794l-.051-.06c-.241.255-.482.511-.727.762l1.632-.433-.488,1.187-1.3-.6q-2.024,2.068-4.207,3.963l.647.032c-.136-.485,1.361-.751,2.366-.925-.77-.107.653-.749-.446-.6a1.959,1.959,0,0,1-.447.163l.229-.128c.083-.015.154-.026.219-.035.677-.353.509-.969,1.408-1.773l-.379.57c2.807-.5,2.381-.2,4.335-.656q1.115-1.23,2.176-2.512l-.015-.009.026-.005" transform="translate(-481.804 -479.21)" fill="#ff8900"/>
        <path d="M127.209,636.318a.894.894,0,0,1-.132.244l-.24.442c-.008.013-.023.028-.031.041,1.032-.664.874-1.264.644-1.86q-.886-.555-1.751-1.139l-.308-.077a.755.755,0,0,1,.024-.117q-.742-.505-1.47-1.029a1.672,1.672,0,0,0-.628.612l.416-.766a65.816,65.816,0,0,1-5.525-4.495l-.914,1.393a4.97,4.97,0,0,1-2.245-.61l-.971.313c.311.3.622.594.939.884a4.841,4.841,0,0,0,.547-.2l-.107.592.017.014c1-.18,1.673-.547,2.255-.316-1.329.437-1.317.885-1.1,1.333q1.8,1.55,3.716,2.979a4.877,4.877,0,0,0,.641-.522,3.694,3.694,0,0,0-.438.671c.134.1.27.193.4.291.6-.189,1.438-.735.4.044-.053.048-.1.091-.15.133q.638.46,1.29.9l.817-.95-.253.795-.376.283q1.34.905,2.732,1.75c.183-.3,1.262-.837,1.669-1.4a.894.894,0,0,0,.132-.244" transform="translate(-91.126 -503.252)" fill="#ff8900"/>
        <path d="M530.891,40.14l1.593-.877-.018.935c-.035-.129-.7-.14-1.677.154a61.38,61.38,0,0,1,6.509,3.628c.642-.394,1.031-.733,1.595-1.045-.5.089-.992.179-1.043.018a10.428,10.428,0,0,1,1.62-.343,66.735,66.735,0,0,0-8.246-4.741l-1.515.71c2.723-.569-.444,1.345,1.182,1.562" transform="translate(-423.134 -30.337)" fill="#ff8900"/>
        <path d="M476.558,17.725l1.8-.592q-.347-.1-.7-.194a3.071,3.071,0,0,1-1.108.785" transform="translate(-380.677 -13.571)" fill="#ff8900"/>
        <path d="M568.7,69.418l.024.016a.191.191,0,0,0-.024-.016" transform="translate(-454.279 -55.613)" fill="#ff8900"/>
        <path d="M521.348,42.348a4.514,4.514,0,0,1-.847.277q.522.217,1.038.443c.375-.3.482-.63-.191-.719" transform="translate(-415.779 -33.926)" fill="#ff8900"/>
        <path d="M80.458,566.329a1.355,1.355,0,0,1,.28.093l.024-.019-.07-.1c-.078.01-.156.016-.234.03" transform="translate(-64.27 -453.682)" fill="#ff8900"/>
        <path d="M87.438,576.369l.33-.065c-.041-.056-.082-.111-.123-.166-.068.079-.137.157-.207.231" transform="translate(-69.846 -461.564)" fill="#ff8900"/>
        <path d="M11.492,423.838c-.066-.208-.134-.415-.2-.623l-1.75-.093c2.229-1.527-.327-2.5.708-3.61q-.844-3.309-1.412-6.724c-.909.072-1.884.114-2.646.212l-.562.862H5.6q.518,3.174,1.271,6.276a.377.377,0,0,1,.219.47l-.1.022q.617,2.483,1.385,4.908l2.144-1.659a3.551,3.551,0,0,1,.977-.042" transform="translate(-4.47 -330.699)" fill="#ff8900"/>
        <path d="M512.32,658.893c1.686-.093,3.411.761,1.949,1.738l1.774-.232a.639.639,0,0,0-.116.282q3-1.414,5.867-3.11a22.126,22.126,0,0,1,4.664-3.417c-1.909-1.09-.3-2.2-.488-3.172a72.135,72.135,0,0,1-13.648,7.911" transform="translate(-409.244 -521.524)" fill="#ff8900"/>
    </g>
</svg>
