<svg id="Uhr" xmlns="http://www.w3.org/2000/svg" width="38.714" height="38.713" viewBox="0 0 38.714 38.713">
    <g id="Gruppe_6414" transform="translate(0 0)">
        <rect id="Rechteck_4345" width="1.201" height="6.006" transform="matrix(0.5, -0.866, 0.866, 0.5, 2.292, 10.199)" fill="#ff8900"/>
        <rect id="Rechteck_4346" width="1.201" height="6.006" transform="translate(30.619 26.554) rotate(-59.998)" fill="#ff8900"/>
        <rect id="Rechteck_4347" width="6.005" height="1.201" transform="translate(25.512 7.493) rotate(-59.977)" fill="#ff8900"/>
        <rect id="Rechteck_4348" width="6.005" height="1.201" transform="translate(9.158 35.819) rotate(-59.977)" fill="#ff8900"/>
        <rect id="Rechteck_4349" width="6.005" height="1.201" transform="translate(2.294 28.516) rotate(-30.002)" fill="#ff8900"/>
        <rect id="Rechteck_4350" width="6.005" height="1.201" transform="translate(30.621 12.161) rotate(-30.002)" fill="#ff8900"/>
        <rect id="Rechteck_4351" width="1.201" height="6.006" transform="matrix(0.866, -0.5, 0.5, 0.866, 9.158, 2.894)" fill="#ff8900"/>
        <rect id="Rechteck_4352" width="1.201" height="6.006" transform="matrix(0.866, -0.5, 0.5, 0.866, 25.513, 31.22)" fill="#ff8900"/>
        <rect id="Rechteck_4353" width="6.005" height="1.201" transform="translate(0 18.757)" fill="#ff8900"/>
        <rect id="Rechteck_4354" width="6.005" height="1.201" transform="translate(32.709 18.757)" fill="#ff8900"/>
        <rect id="Rechteck_4355" width="1.201" height="6.005" transform="translate(18.757 0)" fill="#ff8900"/>
        <rect id="Rechteck_4356" width="1.201" height="6.005" transform="translate(18.757 32.708)" fill="#ff8900"/>
    </g>
</svg>
