<svg xmlns="http://www.w3.org/2000/svg" xmlns:xlink="http://www.w3.org/1999/xlink" width="89.611" height="89.608" viewBox="0 0 89.611 89.608">
    <defs>
        <clipPath id="clip-path">
            <rect id="Rechteck_3963" data-name="Rechteck 3963" width="67.869" height="67.874" fill="none"/>
        </clipPath>
    </defs>
    <g id="Icon_Kreis-Scribble-groß" transform="matrix(-0.407, 0.914, -0.914, -0.407, 89.611, 27.607)">
        <g id="Gruppe_6297" data-name="Gruppe 6297" transform="translate(0 0)" clip-path="url(#clip-path)">
            <path id="Pfad_45733" data-name="Pfad 45733" d="M85.005,16.1l-.1-.115a.5.5,0,0,0-.108.2Z" transform="translate(-25.508 -4.807)" fill="#ff8900"/>
            <path id="Pfad_45734" data-name="Pfad 45734" d="M83.738,82.36a2.931,2.931,0,0,0-.4.425c.136-.148.27-.282.4-.425" transform="translate(-25.068 -24.775)" fill="#ff8900"/>
            <path id="Pfad_45735" data-name="Pfad 45735" d="M83.881,79.18c-.1.118-.206.235-.311.352a.522.522,0,0,0,.311-.352" transform="translate(-25.139 -23.819)" fill="#ff8900"/>
            <path id="Pfad_45736" data-name="Pfad 45736" d="M80.283,12.411a1.88,1.88,0,0,0-1.166-.115q.718.617,1.4,1.28a3.452,3.452,0,0,0,1.133-.392l-.1-.1c-.208,0-.2-.09-.192-.187l-.23-.226a2.066,2.066,0,0,0-.41.019c-.668.2.218.393-.754.334.108-.416.618-.4,1.055-.454q-.185-.175-.372-.346c-.118.024-.215.048-.273.059Z" transform="translate(-23.799 -3.675)" fill="#ff8900"/>
            <path id="Pfad_45737" data-name="Pfad 45737" d="M81.7,14.735c.106.108.21.218.315.327.087-.148,0-.3-.315-.327" transform="translate(-24.575 -4.433)" fill="#ff8900"/>
            <path id="Pfad_45738" data-name="Pfad 45738" d="M83.271,15.577c-.243,0-.493-.012-.767,0q.246.264.487.533c.069-.148.157-.285.282-.531" transform="translate(-24.818 -4.684)" fill="#ff8900"/>
            <path id="Pfad_45739" data-name="Pfad 45739" d="M63.2,2.84l-.42.233.4-.275c-.122-.214-.695.162-1.163.1-.28.327.59.443,1.679.521l-.517.18a27.816,27.816,0,0,1,3.283,1.139c1.1-.324-.555-.406.116-.78l.5.066a.738.738,0,0,0,.249-.157c-.128-.059-.258-.118-.388-.176a3.712,3.712,0,0,0-1.1.166c.052-.157.533-.214.917-.243A29.19,29.19,0,0,0,63.64,2.483l-.46.315a.189.189,0,0,1,.017.043" transform="translate(-18.64 -0.747)" fill="#ff8900"/>
            <path id="Pfad_45740" data-name="Pfad 45740" d="M13.392,81.278c.157.159.314.317.475.475l.043-.012c-.056-.224,1.489-.738.081-.642.456-.083,1.623-.215,1.181-.058a.6.6,0,0,0,.377,0q-.464-.443-.908-.895a2.615,2.615,0,0,1-.873.043,1.189,1.189,0,0,1,.443-.5A31.957,31.957,0,0,1,11.885,76.9a6.485,6.485,0,0,0-.553,2.042q.938,1.167,1.982,2.239l.348.008a1.147,1.147,0,0,0-.262.08" transform="translate(-3.409 -23.134)" fill="#ff8900"/>
            <path id="Pfad_45741" data-name="Pfad 45741" d="M.943,34.129c.171-.031.378-.078.6-.133Q1.489,32.871,1.5,31.73a1.218,1.218,0,0,0-.306.037.966.966,0,0,1,.306-.194q.014-1.489.137-2.995l-.8.306.738-.408.082.012q.07-.818.172-1.638C3.858,11.555,17.125.971,33.247,1.217c0-.419-1.249-.287-.6-.894.476-.009.229-.042.27.108,1.249-.227.463.533.341.786q1.084.017,2.186.1a1.27,1.27,0,0,0,.531-.1.739.739,0,0,1-.1.14l.553.053a2.506,2.506,0,0,1,.81-.382c-.283-.186-.791.181-1.2-.02L37.414.756,37.3.3c-.261.4-1.708.35-1.758.633L35.369.816h-.087L35.122.661l.248.162a1.889,1.889,0,0,0,.9-.369C36.883.4,37.1.3,37.114.192q-.68-.076-1.362-.12L35.7.086c-.1,0-.1,0-.043-.02a33.49,33.49,0,0,0-15.589,2.86.923.923,0,0,0,.148.2,1.684,1.684,0,0,1-.565-.015C9.72,7.643,1.992,16.685.295,27.3a41.779,41.779,0,0,0-.273,6.167l.028-.031c.287.185.361.485.9.7" transform="translate(-0.001 -0.003)" fill="#ff8900"/>
            <path id="Pfad_45742" data-name="Pfad 45742" d="M10.454,77.88l.148.084.092-.373a1.028,1.028,0,0,1-.239.3" transform="translate(-3.145 -23.341)" fill="#ff8900"/>
            <path id="Pfad_45743" data-name="Pfad 45743" d="M8.044,72.11l.273-.034q-.221-.36-.433-.724v.328l-.336.162.3-.559q-.363-.628-.7-1.277l-.271.273c.012-.077.126-.177.264-.285-.148-.273-.282-.547-.417-.825l-.25.045c-.31.092-.652.219-.99.3-.121-.017.738-.408.327-.609a4.24,4.24,0,0,1-.85.4,35.247,35.247,0,0,0,2.122,3.964c.9-.459.875-.63.965-1.151" transform="translate(-1.49 -20.726)" fill="#ff8900"/>
            <path id="Pfad_45744" data-name="Pfad 45744" d="M9.363,76.191a.164.164,0,0,1,.065.068l.01-.057-.076-.012" transform="translate(-2.817 -22.919)" fill="#ff8900"/>
            <path id="Pfad_45745" data-name="Pfad 45745" d="M5.334,67.474l.443-.08c.083-.024.164-.044.241-.062a35.67,35.67,0,0,1-1.51-3.582,1.5,1.5,0,0,1-.608-.106l-.663.241a1.2,1.2,0,0,1-.214.078l.214-.078c.492-.238-.227-.546.9-.715l-.59.5a1.891,1.891,0,0,1,.894-.108c-.083-.231-.161-.465-.238-.7l-.259-.013c.157.3-.657.3-1.3.413q.508,1.6,1.151,3.142a1.593,1.593,0,0,0,.264-.036l.028-.085.016.076-.045.009-.113.333H3.925c.072.168.148.335.217.5A1.474,1.474,0,0,0,5.2,66.949c-.029.36.868.12.133.526" transform="translate(-0.797 -18.906)" fill="#ff8900"/>
            <path id="Pfad_45746" data-name="Pfad 45746" d="M1.994,53.265c-.17.056.134.113-.618-.038-.092.136-.469.518-.512.369.19-.223-.07-.235-.4-.2.032.247.065.493.1.738a3.319,3.319,0,0,1,1.514-.3c-.029-.193-.059-.385-.085-.578" transform="translate(-0.14 -16.012)" fill="#ff8900"/>
            <path id="Pfad_45747" data-name="Pfad 45747" d="M.27,49.338a2.563,2.563,0,0,0,1.337-.089c-.012-.178-.023-.356-.033-.533a8.055,8.055,0,0,1-1.5.227c.007.161.02.322.029.481l.233-.3Z" transform="translate(-0.022 -14.655)" fill="#ff8900"/>
            <path id="Pfad_45748" data-name="Pfad 45748" d="M.641,54.754l.021.148c.177-.092.3-.164-.021-.148" transform="translate(-0.193 -16.47)" fill="#ff8900"/>
            <path id="Pfad_45749" data-name="Pfad 45749" d="M.445,51.314a2.339,2.339,0,0,1,1.26-.673v-.012c-.206-.027-.148-.081-.013-.148-.01-.115-.019-.231-.028-.348a5.948,5.948,0,0,1-.557.286,1,1,0,0,1-.315.356c-.207-.066.031-.213.315-.356.148-.313-.028-.618-.98-.5q.055.853.148,1.7l.917-.206Z" transform="translate(-0.039 -15.009)" fill="#ff8900"/>
            <path id="Pfad_45750" data-name="Pfad 45750" d="M53.968,91.441c-.9.241-.98-.571-.626-.591l.348-.025a.751.751,0,0,1-.148-.08A30.907,30.907,0,0,1,50.3,91.934c-.211.093-.3.109-.315.092-.171.05-.343.1-.516.148a.129.129,0,0,0,.041.041.7.7,0,0,1-.117-.02,27,27,0,0,1-13.771.189A29.442,29.442,0,0,1,24.013,88.37c-.215.279.231.429-.027.648l-.9-.058a1.61,1.61,0,0,1-.489.4A29.644,29.644,0,0,0,26.336,91.3a2.115,2.115,0,0,0,.471-.255,1.379,1.379,0,0,1-.148-.064h-.03l-.575.065.418-.234c.016.066.089.123.187.17.138,0,.175.028.148.064.36.128.844.193.621.259l-.27-.108-.339.308a31.715,31.715,0,0,0,8.588,2.166,30.207,30.207,0,0,0,10.616.554l.041-.007h-.009a30.927,30.927,0,0,0,5.865-1.328c.041-.038.081-.076.118-.113.02.013.015.04,0,.074q1.3-.443,2.558-.984a1.9,1.9,0,0,1,.279-.664c-.456.081-.808.106-.894.241M37.215,93.534c.158-.019.239-.015.1.062a.141.141,0,0,1-.1-.062c-.316.037-.946.159-.76-.057.68-.38.658-.083.76.057" transform="translate(-6.798 -26.583)" fill="#ff8900"/>
            <path id="Pfad_45751" data-name="Pfad 45751" d="M88.27,22.47A5.108,5.108,0,0,1,87,22.523l.159.263a3.781,3.781,0,0,0,.59-.024c.59-.041.133.373-.2.7a34.245,34.245,0,0,1,3.971,22.1,30.463,30.463,0,0,1-6.879,15.809,2.3,2.3,0,0,0,.9.023l-.729.408a4.272,4.272,0,0,0,1.545-.315c.086-.113.173-.227.259-.342-.285,0-.7.053-.8-.076l.7-.049.222-.55c.148-.02.279-.045.406-.073q.571-.817,1.1-1.673c-.148.036-.261.024-.3-.122a.985.985,0,0,0,.427-.09l.065-.109c0-.056-.02-.117.013-.169-.428-.275.118-.5.513-.8a.712.712,0,0,0-.108.248A34.319,34.319,0,0,0,93.02,45.1a34.88,34.88,0,0,0-5.145-23.33c-.361.3-.059.575.394.7" transform="translate(-25.461 -6.549)" fill="#ff8900"/>
            <path id="Pfad_45752" data-name="Pfad 45752" d="M84.415,17.074a1.941,1.941,0,0,1-.569,0l.187.224c.224-.049.406-.131.382-.229" transform="translate(-25.222 -5.135)" fill="#ff8900"/>
            <path id="Pfad_45753" data-name="Pfad 45753" d="M84.709,17.566c-.4.148-.1.266.3.157l.1-.03-.1.03a.559.559,0,0,1-.424.115c.886.138.831.568,1.861.6q-.321-.433-.657-.854l-.09.113c-.562.148.242-.475-.99-.136" transform="translate(-25.424 -5.252)" fill="#ff8900"/>
            <path id="Pfad_45754" data-name="Pfad 45754" d="M9.52,77.444a.93.93,0,0,0,.1-.04.368.368,0,0,0-.185-.076l.083.115" transform="translate(-2.839 -23.262)" fill="#ff8900"/>
            <path id="Pfad_45755" data-name="Pfad 45755" d="M84.9,17.057l.664-.12q-.323-.4-.657-.788c-1.056.394.121.515-.008.908" transform="translate(-25.408 -4.858)" fill="#ff8900"/>
            <path id="Pfad_45756" data-name="Pfad 45756" d="M9.3,76.42a1.051,1.051,0,0,1-.307.18l.2.3c.037-.158.074-.316.106-.475" transform="translate(-2.705 -22.988)" fill="#ff8900"/>
            <path id="Pfad_45757" data-name="Pfad 45757" d="M84.138,79.641c.117-.148.231-.285.345-.429-.925.082-1.148.327-2.3.508l-.036.041c.147.138.217.168-.3.368l-.023-.028c-.111.12-.222.238-.334.354l.748-.2-.224.553-.59-.279q-.927.964-1.927,1.844l.3.015c-.062-.226.624-.35,1.083-.431-.353-.05.3-.348-.2-.278a.9.9,0,0,1-.206.076l.1-.059.1-.017c.31-.165.233-.451.645-.826l-.174.266c1.285-.232,1.09-.092,1.986-.306q.511-.573,1-1.17h.012" transform="translate(-23.916 -23.828)" fill="#ff8900"/>
            <path id="Pfad_45758" data-name="Pfad 45758" d="M21.046,86.977a.427.427,0,0,1-.061.114l-.11.206-.015.019a.609.609,0,0,0,.329-.8.531.531,0,0,0-.034-.069q-.406-.258-.8-.531l-.148-.035a.342.342,0,0,1,.01-.055q-.34-.235-.673-.48a.771.771,0,0,0-.288.285l.19-.357a30.281,30.281,0,0,1-2.53-2.092l-.42.647a2.248,2.248,0,0,1-1.033-.283l-.443.148c.148.139.285.276.429.412a2.155,2.155,0,0,0,.251-.092l-.049.276h.008c.457-.085.766-.255,1.033-.148-.608.2-.6.411-.506.621q.824.722,1.7,1.387a2.246,2.246,0,0,0,.3-.243,1.762,1.762,0,0,0-.2.313l.186.136c.273-.089.659-.343.183.02l-.069.062q.295.214.59.42l.375-.443-.117.371-.173.131q.614.422,1.252.815c.084-.148.578-.389.764-.651a.41.41,0,0,0,.06-.113" transform="translate(-4.518 -25.023)" fill="#ff8900"/>
            <path id="Pfad_45759" data-name="Pfad 45759" d="M70.358,6.072l.731-.409-.009.443c-.016-.061-.319-.065-.768.071a27.937,27.937,0,0,1,2.981,1.689c.3-.183.472-.341.738-.487-.229.041-.454.084-.478.008a4.731,4.731,0,0,1,.738-.159,30.512,30.512,0,0,0-3.777-2.213l-.694.331c1.247-.264-.2.626.541.727" transform="translate(-21.003 -1.509)" fill="#ff8900"/>
            <path id="Pfad_45760" data-name="Pfad 45760" d="M62.81,2.609l.826-.276-.32-.089a1.416,1.416,0,0,1-.507.366" transform="translate(-18.894 -0.675)" fill="#ff8900"/>
            <path id="Pfad_45761" data-name="Pfad 45761" d="M74.958,9.19h0Z" transform="translate(-22.548 -2.765)" fill="#ff8900"/>
            <path id="Pfad_45762" data-name="Pfad 45762" d="M68.99,5.607a2.037,2.037,0,0,1-.388.129c.159.068.317.136.475.206.171-.138.221-.3-.087-.335" transform="translate(-20.636 -1.687)" fill="#ff8900"/>
            <path id="Pfad_45763" data-name="Pfad 45763" d="M10.6,75a.645.645,0,0,1,.129.043l.01-.008-.032-.049A.63.63,0,0,0,10.6,75" transform="translate(-3.189 -22.558)" fill="#ff8900"/>
            <path id="Pfad_45764" data-name="Pfad 45764" d="M11.521,76.4l.148-.031-.056-.077c-.031.037-.062.072-.094.108" transform="translate(-3.465 -22.951)" fill="#ff8900"/>
            <path id="Pfad_45765" data-name="Pfad 45765" d="M3.439,59.8c-.029-.1-.062-.193-.092-.3l-.8-.043c1.022-.711-.148-1.163.325-1.681q-.387-1.54-.647-3.131c-.416.034-.863.053-1.211.1l-.257.4H.745q.237,1.476.581,2.921a.177.177,0,0,1,.1.218l-.046.01q.283,1.157.635,2.286L3,59.819A1.593,1.593,0,0,1,3.44,59.8" transform="translate(-0.224 -16.441)" fill="#ff8900"/>
            <path id="Pfad_45766" data-name="Pfad 45766" d="M67.521,89.89c.772-.043,1.563.354.885.808l.813-.108a.293.293,0,0,0-.053.131q1.375-.658,2.686-1.449a10.178,10.178,0,0,1,2.137-1.591c-.875-.508-.138-1.033-.224-1.475A32.864,32.864,0,0,1,67.513,89.9" transform="translate(-20.309 -25.932)" fill="#ff8900"/>
            <path id="Pfad_45767" data-name="Pfad 45767" d="M25.9,82.324l.015.009c.1-.009.148,0-.015-.009" transform="translate(-7.79 -24.764)" fill="#ff8900"/>
            <path id="Pfad_45768" data-name="Pfad 45768" d="M63.663,86.639a.986.986,0,0,0,.294-.254c-.214-.064-.427-.084-.473-.017-.14.06-.28.113-.418.171-.01.119-.078.27.6.1" transform="translate(-18.969 -25.968)" fill="#ff8900"/>
            <path id="Pfad_45769" data-name="Pfad 45769" d="M64.719,87.355c.233,0,.343-.04.361-.12a.9.9,0,0,0-.356.04Z" transform="translate(-19.468 -26.241)" fill="#ff8900"/>
            <path id="Pfad_45770" data-name="Pfad 45770" d="M50.52,85.856l1.126-.282-.175-.183a25.928,25.928,0,0,1-14.618,1.414,30.689,30.689,0,0,1-11.214-4.476c-.148.013-.4.059-.271.23.032,0-.663.081-.259.12.125.221-.415.375.443.51q1.373.94,2.746,1.7l.1-.089.247.034-.224.124a23.629,23.629,0,0,0,7.562,2.681,29.3,29.3,0,0,0,8.657.316L44.7,87.9l-.034.053c.231-.027.46-.057.689-.088l.052-.015a.033.033,0,0,0-.029.012,23.355,23.355,0,0,0,5.232-1.343c.335-.274.5-.521-.089-.657m-17.4.6.754-.332-.387.382Zm11.508,1.138.317-.175.683-.124Z" transform="translate(-7.515 -24.766)" fill="#ff8900"/>
            <path id="Pfad_45771" data-name="Pfad 45771" d="M73.841,14.456l.443-.326-.459.083.468-.086.459-.083-.9.417c.388.341.764.689,1.119,1.049.275.134.677.246.562.007.59-.072.549-.41.913-.5q-.91-.761-1.818-1.445a3.578,3.578,0,0,1-1.445.327q.335.273.657.555" transform="translate(-22.016 -4.082)" fill="#ff8900"/>
            <path id="Pfad_45772" data-name="Pfad 45772" d="M66.938,9.257a1.191,1.191,0,0,0,.148-.016A29.386,29.386,0,0,0,60.224,6.2l-1.12.385L59.3,6.4l.908-.2q-.559-.166-1.138-.318a6.918,6.918,0,0,1-1.046.571A26.614,26.614,0,0,1,66.429,10c.356-.257.569-.5.512-.745" transform="translate(-17.453 -1.769)" fill="#ff8900"/>
            <path id="Pfad_45773" data-name="Pfad 45773" d="M72.458,13.039l.775-.257-.717.4c.052.04.1.077.148.117a8.9,8.9,0,0,1,1.475-.28q-.443-.334-.9-.647a2.359,2.359,0,0,0-.339.078c.115.451-.311.173-.443.59" transform="translate(-21.795 -3.721)" fill="#ff8900"/>
            <path id="Pfad_45774" data-name="Pfad 45774" d="M46.033,5.162c-.21.117-.136.416-.3.248l.013-.434.513.148a1.819,1.819,0,0,0,.788-.528,39.127,39.127,0,0,0-8.382.752c.148.246-.485.273-.614.416.562.218.967.326.468.307-.329.174-.122.268.829.379a24.241,24.241,0,0,1,7.125-.905c.043-.187-.148-.341-.443-.38" transform="translate(-11.448 -1.381)" fill="#ff8900"/>
        </g>
    </g>
</svg>
