<svg id="Icon_close" xmlns="http://www.w3.org/2000/svg" width="42" height="42" viewBox="0 0 42 42">
    <path id="Pfad_82182" d="M21,1A20,20,0,1,1,1,21,20,20,0,0,1,21,1" fill="#ff8900"/>
    <circle id="Ellipse_815" cx="20" cy="20" r="20" transform="translate(1 1)" fill="none" stroke="#121229" stroke-miterlimit="10" stroke-width="2"/>
    <path id="Pfad_82183" d="M24.044,25.52c0-.155-.333-.4-.911-.933-.355-.333-1.2-1.066-2.155-1.888a28.912,28.912,0,0,0-2.354,3.643,1.633,1.633,0,0,1-1.153.955c-.377,0-1.444-.734-1.444-1.266.022-.578.267-.911.866-1.51a19.4,19.4,0,0,0,1.775-2.086c.222-.288.488-.622.777-1.022-.822-.689-1.51-1.288-1.777-1.533a16.9,16.9,0,0,1-2.645-4.135,1.073,1.073,0,0,1,.712-.978,3.427,3.427,0,0,1,.844-.267c.667,0,1.112.156,1.112.8a6.2,6.2,0,0,0,1.221,2.6,9.848,9.848,0,0,0,2.02,2.087c.689-1,1.378-1.977,1.667-2.4a20.9,20.9,0,0,1,1.866-2.155,2.55,2.55,0,0,1,1.87-.688.507.507,0,0,1,.507.466,9.143,9.143,0,0,1-1.711,2.511c-1.044.866-1.843,2.644-2.555,3.621l2.493,2a6.153,6.153,0,0,1,1.91,3.088A1.128,1.128,0,0,1,25.955,27.5a1.9,1.9,0,0,1-1.912-1.883c0-.031,0-.062,0-.094" fill="#121229"/>
    <rect id="Rechteck_4391" width="42" height="42" fill="none"/>
</svg>