<svg xmlns="http://www.w3.org/2000/svg" xmlns:xlink="http://www.w3.org/1999/xlink" width="20.554" height="20.795" viewBox="0 0 20.554 20.795">
    <defs>
        <clipPath id="clip-path">
            <rect id="Rechteck_3553" data-name="Rechteck 3553" width="20.554" height="20.795" fill="#ff8900"/>
        </clipPath>
    </defs>
    <g id="Gruppe_6243" data-name="Gruppe 6243" transform="translate(0 0)">
        <g id="Gruppe_6242" data-name="Gruppe 6242" transform="translate(0 0)" clip-path="url(#clip-path)">
            <path id="Pfad_9667" data-name="Pfad 9667" d="M8.287,14.1a30.255,30.255,0,0,1-.3-5.717,1.265,1.265,0,0,1,.163-.7,3.885,3.885,0,0,1,.718-.548q.85-.643,1.663-1.333c1-.847,1.968-1.731,2.918-2.633.528-.5,1.053-1.007,1.567-1.523H13.643l7.435,6.108,1.057.868-.284-.686q.08,1.54.166,3.079c.038.678.077,1.355.122,2.032a2.567,2.567,0,0,0,.359,1.534.988.988,0,0,0,1.176.152,1.064,1.064,0,0,0,.489-1.077.971.971,0,0,0-1.942,0c0,.055,0,.111,0,.165.008.138-.064.041.028-.185l.446-.58h0l1.176.152v0l.25.428c-.043-.115.029.335.017.143,0-.079-.014-.158-.02-.237-.02-.257-.037-.514-.053-.771-.046-.73-.088-1.46-.128-2.19q-.056-1-.109-2.008A1.916,1.916,0,0,0,23.5,7.245c-.667-.653-1.471-1.209-2.192-1.8L17.442,2.27,15.016.276a.993.993,0,0,0-1.373,0C12.274,1.653,10.85,2.983,9.377,4.245q-.39.334-.787.659c-.236.193-.543.437-.7.557-.731.552-1.5,1.012-1.723,1.972A13.9,13.9,0,0,0,6.1,11.385c.061.906.141,1.812.249,2.713a1,1,0,0,0,.971.971.977.977,0,0,0,.971-.971" transform="translate(-4.051 0)" fill="#ff8900"/>
            <path id="Pfad_9668" data-name="Pfad 9668" d="M.715,52.164a4.717,4.717,0,0,1,1.225.917A7.084,7.084,0,0,0,3.5,54.229a6.219,6.219,0,0,0,4.133.306c2.552-.58,4.859-2.46,7.6-1.955a6.082,6.082,0,0,1,1.922.686c.692.394,1.286.93,1.943,1.376a.971.971,0,1,0,.98-1.676c-.582-.4-1.113-.864-1.71-1.237a7.8,7.8,0,0,0-1.895-.846,7.987,7.987,0,0,0-4.242-.065c-1.368.348-2.62,1.021-3.942,1.5a5.547,5.547,0,0,1-3.611.31,4.556,4.556,0,0,1-1.5-1.043,6.7,6.7,0,0,0-1.942-1.291.977.977,0,0,0-1.194.678,1,1,0,0,0,.678,1.194" transform="translate(0 -33.984)" fill="#ff8900"/>
            <path id="Pfad_9669" data-name="Pfad 9669" d="M24.111,34.926a27.491,27.491,0,0,1,.1-2.934c.007-.068.016-.136.023-.2.018-.168-.04.271-.015.109.006-.035.01-.069.016-.1.017-.109.037-.218.062-.326.019-.084.041-.169.068-.251.01-.031.022-.062.032-.093.049-.151-.14.284-.048.115.023-.043.048-.086.072-.128.1-.169-.208.221-.062.082.049-.047.1-.095.147-.141.018-.017.111-.084.109-.1l-.1.081a1.1,1.1,0,0,1,.1-.06c.167-.106-.208.048-.015.009.036-.007.078-.019.114-.029.2-.057-.228,0-.022.006.06,0,.122,0,.182,0,.2,0-.212-.055-.014,0,.06.017.121.028.181.047.093.029.186.118,0-.009.082.057.189.1.276.151.187.1-.154-.145,0,0,.031.028.062.055.092.084.1.1.055.135-.023-.047.023.055.066.111.1.164.046.084-.021.074-.039-.094a1.472,1.472,0,0,0,.063.2,2.988,2.988,0,0,0,.067.334c-.085-.213-.016-.131,0-.021q.01.092.017.183c.011.135.018.27.024.4a9.854,9.854,0,0,0,.144,1.627.978.978,0,0,0,1.194.678.994.994,0,0,0,.678-1.194c-.01-.046-.018-.091-.027-.137-.036-.188.025.256.008.057-.009-.111-.019-.221-.026-.332-.015-.264-.022-.529-.035-.793a5.134,5.134,0,0,0-.251-1.573,2.473,2.473,0,0,0-1.336-1.395,2.662,2.662,0,0,0-1.993-.147,2.554,2.554,0,0,0-1.23.983,3.175,3.175,0,0,0-.4,1.252,23.99,23.99,0,0,0-.181,3.546.971.971,0,1,0,1.942,0" transform="translate(-14.995 -19.625)" fill="#ff8900"/>
        </g>
    </g>
</svg>
