<svg xmlns="http://www.w3.org/2000/svg" width="19.273" height="13" viewBox="0 0 19.273 13">
    <path id="Pfad_82178" d="M11.733,25.539a.546.546,0,0,1,.091-.235c-.469-.666-.722-2.145-.74-4.309a1.411,1.411,0,0,1-.162-.577.442.442,0,0,1,.144-.306,3.631,3.631,0,0,0-.018-.451c-.036-.379-.234-1.713-.342-2.416a.912.912,0,0,1-.343-.542,1.01,1.01,0,0,1,.469-.883,3.064,3.064,0,0,1,1.7-1.28,19.656,19.656,0,0,1,3.3-.577c2,0,3.192.415,3.174,1.082-.018.6-.163.848-.469.848a4.415,4.415,0,0,0-1.479-.361,12.132,12.132,0,0,0-4.742.973,2.628,2.628,0,0,1,.109.757c.017.344.108,1.407.18,2.363a34.608,34.608,0,0,1,4.958-.523A1.422,1.422,0,0,1,19,20.057a.6.6,0,0,1-.631.631c-.452,0-1.857-.143-2.218-.143a7.568,7.568,0,0,0-3.372.846c.09.668.108,1.822.163,2.236.053.4.36.4.36.956v.055c.811-.181,2.073-.56,2.831-.631.955-.109,1.784-.452,2-.452.848,0,1.532.541,1.532.866,0,.468-.648.631-.919.631-.469,0-2.307.541-3.011.667a19,19,0,0,1-2.542.559c-.956,0-1.461-.541-1.461-.739" transform="translate(-10.363 -13.602)" fill="#ff8900"/>
    <path id="Pfad_82179" d="M25.615,22.906c-1.226-1.407-1.929-4.382-3.3-5.03v.27c0,.5.5,3.606.559,4.49.072.9.361,2.434.325,3.083a.932.932,0,0,1-.938.883.947.947,0,0,1-.956-.847c0-2.921-.631-6.509-.631-9.07a1.125,1.125,0,0,1,.036-.234,2.461,2.461,0,0,1-.053-.523,1.231,1.231,0,0,1,.973-1.082A4.487,4.487,0,0,1,23.974,16.5c.432.757,2.236,4.6,3.643,6.112-.019-.342,0-.7-.019-.919,0-.451-.216-2.308-.216-2.8,0-.469-.162-3.444-.162-3.732,0-.9.45-1.569,1.063-1.569s.92.342.9,1.046c-.018.793-.289,1.37-.271,1.659.253,4.255.722,6.761.722,7.23,0,.577-.631,2.506-1.137,2.506-.306,0-2.307-2.416-2.884-3.137" transform="translate(-10.363 -13.602)" fill="#ff8900"/>
</svg>
