<svg xmlns="http://www.w3.org/2000/svg" xmlns:xlink="http://www.w3.org/1999/xlink" width="19.212" height="13.153" viewBox="0 0 19.212 13.153">
    <defs>
        <clipPath id="clip-path">
            <rect id="Rechteck_3551" data-name="Rechteck 3551" width="19.212" height="13.153" fill="#ff8900"/>
        </clipPath>
    </defs>
    <g id="Sprache" transform="translate(-13 -16.286)">
        <g id="Gruppe_6239" data-name="Gruppe 6239" transform="translate(13 16.286)">
            <g id="Gruppe_6238" data-name="Gruppe 6238" transform="translate(0 0.001)" clip-path="url(#clip-path)">
                <path id="Pfad_9664" data-name="Pfad 9664" d="M.627,12.585c0-.284-.038-.53-.038-.738,0-.322.113-.549.568-.606,0-.341.019-.795.019-1.476S.74,5.753.589,5.053L.532,4.731C.267,4.656.021,4.466.021,3.936c0-.795-.227-1.609.776-2.328C1.743.908,2.519,0,4.223,0A4.457,4.457,0,0,1,7.4,1.325,4.428,4.428,0,0,1,8.594,4.069a8.984,8.984,0,0,1-.3,2.479,16.342,16.342,0,0,1-.7,2.025c-.208.341-3.69,4.58-5.261,4.58-.662,0-1.7-.095-1.7-.568M2.633,7.192c-.019.3.189,2.612.227,3.974a4.049,4.049,0,0,0,1.779-1.23,11.542,11.542,0,0,0,1.552-2.2,7.753,7.753,0,0,0,.643-2.12c.057-.53.114-1.457.114-1.817A2.659,2.659,0,0,0,4.2,1.76a2.838,2.838,0,0,0-2.176.851c.019,1.173.662,3.539.606,4.58" transform="translate(0.001 0)" fill="#ff8900"/>
                <path id="Pfad_9665" data-name="Pfad 9665" d="M61.337,13.471a.582.582,0,0,1,.095-.246c-.492-.7-.757-2.252-.776-4.523a1.48,1.48,0,0,1-.17-.606.466.466,0,0,1,.151-.322,3.8,3.8,0,0,0-.019-.473c-.038-.4-.246-1.8-.36-2.536A.96.96,0,0,1,59.9,4.2a1.059,1.059,0,0,1,.492-.927A3.219,3.219,0,0,1,62.17,1.927a20.583,20.583,0,0,1,3.463-.606c2.1,0,3.35.435,3.331,1.136-.019.624-.17.89-.492.89a4.64,4.64,0,0,0-1.552-.379,12.728,12.728,0,0,0-4.977,1.022,2.752,2.752,0,0,1,.114.795c.019.36.113,1.476.189,2.479a36.4,36.4,0,0,1,5.2-.549,1.491,1.491,0,0,1,1.514,1,.624.624,0,0,1-.662.662c-.473,0-1.949-.151-2.328-.151a7.919,7.919,0,0,0-3.539.89c.095.7.114,1.911.17,2.347.057.416.378.416.378,1v.057c.852-.189,2.176-.587,2.971-.662,1-.114,1.874-.473,2.1-.473.889,0,1.609.568,1.609.908,0,.492-.681.662-.965.662-.492,0-2.422.568-3.16.7a19.876,19.876,0,0,1-2.669.587c-1,0-1.533-.568-1.533-.776" transform="translate(-50.452 -1.113)" fill="#ff8900"/>
            </g>
        </g>
    </g>
</svg>
