<svg id="Icon-Kreis-Scriblle-groß" xmlns="http://www.w3.org/2000/svg" width="90" height="90" viewBox="0 0 90 90">
    <g id="Gruppe_6370">
        <path id="Pfad_45779" d="M643.657,120.828l-.134-.153a.655.655,0,0,0-.143.263l.277-.11" transform="translate(-564.756 -105.858)" fill="#ff8900"/>
        <path id="Pfad_45780" d="M632.816,621.941a3.943,3.943,0,0,0-.534.563c.181-.186.357-.375.534-.563" transform="translate(-555.014 -545.577)" fill="#ff8900"/>
        <path id="Pfad_45781" d="M634.4,597.924c-.135.157-.274.311-.413.467a.692.692,0,0,0,.413-.467" transform="translate(-556.508 -524.508)" fill="#ff8900"/>
        <path id="Pfad_45782" d="M601.83,92.536a2.491,2.491,0,0,0-1.545-.152q.954.818,1.853,1.7a4.544,4.544,0,0,0,1.5-.52c-.045-.046-.093-.091-.139-.136-.276,0-.263-.12-.253-.248-.1-.1-.2-.2-.306-.3a2.7,2.7,0,0,0-.544.025c-.886.264.289.52-1,.441.144-.551.82-.524,1.4-.6q-.244-.232-.492-.46c-.156.034-.286.064-.361.077Z" transform="translate(-526.927 -80.95)" fill="#ff8900"/>
        <path id="Pfad_45783" d="M619.855,111.282c.141.143.279.289.418.434.115-.2,0-.384-.418-.434" transform="translate(-544.106 -97.618)" fill="#ff8900"/>
        <path id="Pfad_45784" d="M627.007,117.613c-.323,0-.654-.016-1.018,0q.326.349.645.706c.091-.2.208-.378.373-.7" transform="translate(-549.49 -103.166)" fill="#ff8900"/>
        <path id="Pfad_45785" d="M471.777,19.223l-.557.31.534-.366c-.163-.283-.922.216-1.542.131-.372.432.779.588,2.227.691l-.688.239a37,37,0,0,1,4.354,1.51c1.46-.429-.736-.539.155-1.034l.659.089a.974.974,0,0,0,.331-.21c-.171-.078-.342-.157-.514-.232a4.914,4.914,0,0,0-1.463.218c.069-.207.706-.283,1.217-.322a38.711,38.711,0,0,0-4.126-1.5l-.61.417a.229.229,0,0,1,.023.056" transform="translate(-412.688 -16.447)" fill="#ff8900"/>
        <path id="Pfad_45786" d="M88.526,586.591q.312.318.63.63c.02-.007.035-.009.056-.016-.075-.3,1.974-.982.107-.852.6-.109,2.147-.285,1.563-.076a.8.8,0,0,0,.5.008q-.615-.581-1.206-1.188a3.44,3.44,0,0,1-1.157.057,1.568,1.568,0,0,1,.579-.663,42.334,42.334,0,0,1-3.083-3.693,8.639,8.639,0,0,0-.734,2.707q1.245,1.547,2.629,2.971c.111,0,.26.005.461.011a1.613,1.613,0,0,0-.348.106" transform="translate(-75.288 -509.484)" fill="#ff8900"/>
        <path id="Pfad_45787" d="M1.251,45.254c.228-.041.5-.1.8-.175q-.078-1.493-.07-3.006a1.639,1.639,0,0,0-.4.048,1.274,1.274,0,0,1,.405-.257c.012-1.316.07-2.641.182-3.973L1.1,38.3l.97-.542.107.015q.093-1.083.23-2.171C5.116,15.32,22.712,1.284,44.09,1.61c0-.556-1.658-.381-.794-1.185.632-.011.3-.054.358.144,1.657-.3.614.709.453,1.042q1.439.022,2.9.134a1.7,1.7,0,0,0,.7-.139,1.014,1.014,0,0,1-.128.185c.244.021.488.046.733.071a3.3,3.3,0,0,1,1.074-.507c-.376-.246-1.048.241-1.587-.026L49.616,1,49.472.4c-.347.531-2.265.463-2.332.84l-.234-.153c-.039,0-.074.007-.115.008L46.577.873l.329.214A2.513,2.513,0,0,0,48.1.6c.814-.079,1.1-.21,1.121-.348q-.9-.1-1.806-.158c-.025.006-.047.012-.074.017-.131.01-.129,0-.056-.026A44.42,44.42,0,0,0,26.605,3.877a1.215,1.215,0,0,0,.2.265,2.222,2.222,0,0,1-.749-.021C12.892,10.13,2.643,22.122.386,36.186a55.462,55.462,0,0,0-.362,8.178l.037-.042c.379.244.48.644,1.19.932" transform="translate(0 0)" fill="#ff8900"/>
        <path id="Pfad_45788" d="M79.33,586.3c.065.037.132.074.2.112l.121-.495a1.352,1.352,0,0,1-.317.383" transform="translate(-69.635 -513.976)" fill="#ff8900"/>
        <path id="Pfad_45789" d="M41.72,524.555l.363-.045q-.293-.477-.575-.961l0,.435-.446.215.4-.741q-.482-.834-.93-1.7l-.358.361c.017-.1.166-.234.35-.377-.189-.362-.374-.726-.554-1.094l-.33.06c-.411.121-.865.29-1.312.393-.161-.023.979-.542.433-.808a5.547,5.547,0,0,1-1.127.526,46.508,46.508,0,0,0,2.814,5.257c1.188-.609,1.161-.835,1.28-1.525" transform="translate(-33.028 -456.413)" fill="#ff8900"/>
        <path id="Pfad_45790" d="M71.047,575.368a.22.22,0,0,1,.085.09l.015-.076-.1-.015" transform="translate(-62.365 -504.722)" fill="#ff8900"/>
        <path id="Pfad_45791" d="M23.616,480.748l.587-.107c.11-.032.216-.059.319-.082a47.378,47.378,0,0,1-2-4.75,2.009,2.009,0,0,1-.807-.14l-.879.319a1.588,1.588,0,0,1-.285.1l.285-.1c.651-.314-.3-.724,1.2-.948l-.789.663a2.508,2.508,0,0,1,1.185-.143c-.109-.307-.213-.616-.315-.926l-.343-.017c.209.384-.871.383-1.723.547q.673,2.126,1.525,4.167a2.071,2.071,0,0,0,.35-.05l.038-.112.022.1-.06.013-.151.442-.032,0c.1.222.19.444.288.665a1.955,1.955,0,0,0,1.411-.338c-.04.477,1.15.158.176.7" transform="translate(-17.598 -416.342)" fill="#ff8900"/>
        <path id="Pfad_45792" d="M5.568,401.993c-.225.075.177.151-.819-.05-.122.18-.622.687-.679.489.252-.295-.093-.312-.53-.258q.062.492.134.982a4.4,4.4,0,0,1,2.008-.4c-.039-.256-.078-.511-.113-.768" transform="translate(-3.107 -352.591)" fill="#ff8900"/>
        <path id="Pfad_45793" d="M.818,368.692a3.408,3.408,0,0,0,1.773-.117q-.023-.354-.042-.709a10.69,10.69,0,0,1-1.99.3c.011.213.025.426.038.639l.309-.389Z" transform="translate(-0.49 -322.698)" fill="#ff8900"/>
        <path id="Pfad_45794" d="M4.874,413.436l.027.189c.235-.121.391-.217-.027-.189" transform="translate(-4.278 -362.668)" fill="#ff8900"/>
        <path id="Pfad_45795" d="M1.393,378.7a3.108,3.108,0,0,1,1.672-.891c0-.005,0-.011,0-.016-.274-.036-.2-.108-.017-.193-.014-.153-.025-.307-.038-.461-.126.091-.448.234-.737.379a1.327,1.327,0,0,1-.418.472c-.274-.088.041-.282.418-.472.2-.415-.038-.819-1.3-.662q.073,1.13.193,2.25l1.214-.271Z" transform="translate(-0.852 -330.556)" fill="#ff8900"/>
        <path id="Pfad_45796" d="M213.018,671.339c-1.19.318-1.3-.757-.83-.787l.461-.034a1.031,1.031,0,0,1-.193-.105,41.244,41.244,0,0,1-4.314,1.577c-.28.123-.382.145-.416.12-.227.067-.455.132-.684.195a.174.174,0,0,0,.054.054c-.05-.007-.1-.017-.155-.028a35.809,35.809,0,0,1-18.263.251,39.039,39.039,0,0,1-15.392-5.321c-.286.369.308.569-.036.86l-1.19-.076a2.14,2.14,0,0,1-.65.534,39.453,39.453,0,0,0,4.954,2.564,2.775,2.775,0,0,0,.623-.338,1.855,1.855,0,0,1-.2-.085l-.039,0-.763.086.553-.309c.023.088.119.161.249.225.184.007.234.038.2.085.477.17,1.118.256.824.344l-.358-.143-.45.409a42.067,42.067,0,0,0,11.388,2.871,40.066,40.066,0,0,0,14.077.735l.055-.01-.011,0a41.025,41.025,0,0,0,7.777-1.759c.055-.051.108-.1.156-.148.028.018.019.053-.005.1q1.724-.578,3.393-1.306a2.531,2.531,0,0,1,.37-.88c-.6.108-1.069.141-1.186.319m-22.232,2.774c.209-.024.316-.02.131.082a.185.185,0,0,1-.131-.082c-.419.049-1.254.211-1.008-.077.9-.5.873-.109,1.008.077" transform="translate(-150.464 -585.331)" fill="#ff8900"/>
        <path id="Pfad_45797" d="M647.026,165.305a6.758,6.758,0,0,1-1.689.07c.07.116.141.231.211.348a4.942,4.942,0,0,0,.786-.031c.773-.055.176.5-.263.933a45.409,45.409,0,0,1,5.265,29.312,40.389,40.389,0,0,1-9.122,20.963,3.051,3.051,0,0,0,1.2.031l-.966.539a5.674,5.674,0,0,0,2.049-.417c.114-.151.229-.3.342-.454-.378,0-.93.071-1.055-.1l.933-.065.3-.731c.192-.028.37-.061.538-.1q.758-1.083,1.453-2.219c-.193.048-.345.03-.392-.162a1.317,1.317,0,0,0,.566-.119l.087-.144c0-.075-.028-.154.018-.222-.567-.367.156-.657.68-1.061a.93.93,0,0,0-.143.329,45.5,45.5,0,0,0,5.509-16.7,46.254,46.254,0,0,0-6.822-30.938c-.479.4-.079.764.522.932" transform="translate(-563.733 -144.191)" fill="#ff8900"/>
        <path id="Pfad_45798" d="M636.919,128.951a2.583,2.583,0,0,1-.756.007c.083.1.165.2.248.3.3-.065.539-.174.508-.3" transform="translate(-558.421 -113.118)" fill="#ff8900"/>
        <path id="Pfad_45799" d="M641.5,132.026c-.537.2-.135.352.393.208.042-.012.084-.024.127-.04-.043.015-.085.028-.127.04a.74.74,0,0,1-.562.153l0,.005c1.172.181,1.1.753,2.468.8q-.426-.574-.871-1.133l-.12.15c-.746.19.321-.63-1.313-.18" transform="translate(-562.885 -115.695)" fill="#ff8900"/>
        <path id="Pfad_45800" d="M71.708,584.1a1.126,1.126,0,0,0,.136-.053.488.488,0,0,0-.245-.1c.035.051.072.1.109.152" transform="translate(-62.849 -512.245)" fill="#ff8900"/>
        <path id="Pfad_45801" d="M641.426,123.152l.881-.159q-.428-.529-.87-1.044c-1.4.522.161.684-.011,1.2" transform="translate(-562.533 -106.975)" fill="#ff8900"/>
        <path id="Pfad_45802" d="M68.63,577.085a1.4,1.4,0,0,1-.408.238q.133.2.267.393c.049-.209.1-.418.14-.63" transform="translate(-59.885 -506.228)" fill="#ff8900"/>
        <path id="Pfad_45803" d="M609.3,598.734c.154-.189.308-.377.459-.569-1.227.11-1.522.435-3.045.673l-.05.056c.188.183.287.223-.388.49l-.031-.037c-.146.158-.293.315-.442.47l.991-.267-.3.733-.789-.369q-1.229,1.277-2.555,2.447l.393.02c-.083-.3.827-.464,1.437-.571-.468-.066.4-.463-.271-.368a1.174,1.174,0,0,1-.272.1l.139-.079.133-.022c.411-.218.309-.6.855-1.095l-.23.352c1.705-.307,1.446-.121,2.633-.4q.677-.759,1.322-1.551l-.009-.005.016,0" transform="translate(-529.447 -524.72)" fill="#ff8900"/>
        <path id="Pfad_45804" d="M122.054,633.2a.555.555,0,0,1-.08.151l-.146.273c0,.008-.014.017-.019.025a.808.808,0,0,0,.391-1.149q-.538-.343-1.064-.7l-.187-.047a.473.473,0,0,1,.014-.072q-.45-.312-.893-.636a1.024,1.024,0,0,0-.381.378l.253-.473a40.115,40.115,0,0,1-3.356-2.775l-.555.86a2.98,2.98,0,0,1-1.364-.376l-.59.193c.189.183.378.367.57.546a2.913,2.913,0,0,0,.332-.121l-.065.365.01.009c.606-.111,1.016-.338,1.369-.2-.807.27-.8.546-.67.823q1.094.957,2.257,1.839a2.972,2.972,0,0,0,.389-.323,2.288,2.288,0,0,0-.266.414c.081.061.164.119.246.18.362-.117.874-.454.242.027-.032.03-.062.056-.091.082q.388.284.784.557l.5-.586-.154.491-.228.175q.814.559,1.66,1.081c.111-.186.767-.517,1.014-.862a.555.555,0,0,0,.08-.151" transform="translate(-100.137 -551.044)" fill="#ff8900"/>
        <path id="Pfad_45805" d="M530.427,39.271l.967-.542-.011.577c-.021-.08-.422-.086-1.018.095a37.116,37.116,0,0,1,3.953,2.24c.39-.243.626-.452.969-.645-.3.055-.6.111-.633.011a6.242,6.242,0,0,1,.984-.212,40.373,40.373,0,0,0-5.008-2.927l-.92.438c1.654-.351-.27.83.718.965" transform="translate(-464.976 -33.218)" fill="#ff8900"/>
        <path id="Pfad_45806" d="M476.558,17.425l1.1-.365-.423-.119a1.866,1.866,0,0,1-.673.485" transform="translate(-418.32 -14.86)" fill="#ff8900"/>
        <path id="Pfad_45807" d="M568.7,69.418l.015.01a.117.117,0,0,0-.015-.01" transform="translate(-499.2 -60.895)" fill="#ff8900"/>
        <path id="Pfad_45808" d="M521.016,42.348a2.713,2.713,0,0,1-.515.171q.317.134.63.273c.228-.184.293-.389-.116-.444" transform="translate(-456.893 -37.148)" fill="#ff8900"/>
        <path id="Pfad_45809" d="M80.458,566.317a.815.815,0,0,1,.17.057l.015-.012L80.6,566.3c-.047.006-.095.01-.142.018" transform="translate(-70.626 -496.767)" fill="#ff8900"/>
        <path id="Pfad_45810" d="M87.438,576.281l.2-.04-.075-.1c-.041.048-.083.1-.126.143" transform="translate(-76.753 -505.397)" fill="#ff8900"/>
        <path id="Pfad_45811" d="M9.177,419.61c-.04-.128-.081-.256-.121-.385l-1.063-.057c1.354-.943-.2-1.541.43-2.229q-.513-2.043-.858-4.152c-.552.045-1.144.071-1.607.131l-.341.532H5.6q.315,1.959.772,3.875a.234.234,0,0,1,.133.29l-.062.013q.375,1.533.842,3.03l1.3-1.024a2.121,2.121,0,0,1,.594-.026" transform="translate(-4.912 -362.104)" fill="#ff8900"/>
        <path id="Pfad_45812" d="M512.32,655.866c1.024-.057,2.072.47,1.184,1.073l1.077-.143a.4.4,0,0,0-.07.174q1.824-.873,3.563-1.92a13.454,13.454,0,0,1,2.833-2.11c-1.16-.673-.184-1.36-.3-1.958a43.647,43.647,0,0,1-8.29,4.884" transform="translate(-449.712 -571.052)" fill="#ff8900"/>
    </g>
</svg>
