<svg xmlns="http://www.w3.org/2000/svg" xmlns:xlink="http://www.w3.org/1999/xlink" width="120.501" height="38.862" viewBox="0 0 120.501 38.862" preserveAspectRatio="none">
    <defs>
        <clipPath id="clip-path">
            <rect id="Rechteck_3964" data-name="Rechteck 3964" width="120.501" height="32.726" transform="translate(0 0)" fill="none"/>
        </clipPath>
    </defs>
    <g id="Gruppe_6305" transform="translate(-18.313 -10.227)">
        <g id="Gruppe_6298" transform="translate(18.313 10.227)" clip-path="url(#clip-path)">
            <path id="Pfad_45776" d="M13.915,2.5c-2.787.353-5.073.806-7.656,3.087a15.232,15.232,0,0,0-4.723,10.43A16.5,16.5,0,0,0,4.889,27.474c2.64,3.2,6.33,4.086,9.79,4.639,4.8.768,63.964.182,81.549-.083,3.954-.059,13.74-.4,17.491-2.168s6.87-6.895,7.053-12.465a14.451,14.451,0,0,0-4.325-11.271c-2.786-2.514-7.241-3.892-18.337-4.29-14.172-.508-74.617-.548-84.192.667" transform="translate(-0.885 -0.634)" fill="#ff8900"/>
            <path id="Pfad_45777" d="M118.86,8.765a12.578,12.578,0,0,0-4.9-5.4A17.373,17.373,0,0,0,108.732,1.5,57.485,57.485,0,0,0,100.107.468C96.862.279,93.613.227,90.366.174Q84.669.082,78.972.05,72.081,0,65.19,0,57.874,0,50.558.035q-7.082.04-14.163.134C32.342.225,28.289.3,24.236.412c-2.9.082-5.794.173-8.687.365C14.709.833,13.868.9,13.03,1,9.692,1.429,6.5,2.391,3.84,5.453A17.3,17.3,0,0,0,0,16.823,17,17,0,0,0,4.135,28.091c2.651,2.828,6.059,3.654,9.28,4.191a36.119,36.119,0,0,0,5.09.3c3.182.077,6.365.1,9.547.119q6.4.035,12.792.016,7.247-.015,14.494-.061,7.326-.044,14.652-.111,6.6-.058,13.209-.133,5.179-.058,10.357-.129a111.437,111.437,0,0,0,13.432-.788,17.274,17.274,0,0,0,6.879-1.912c2.756-1.673,5.016-4.975,6.068-8.941a17.619,17.619,0,0,0-1.076-11.88m.217,9.917a13.812,13.812,0,0,1-5.513,9.21c-2.057,1.352-4.5,1.6-6.733,1.9-2.665.353-5.341.531-8.016.642-3.232.134-6.467.143-9.7.184q-5.806.073-11.612.131-6.866.07-13.733.124-7.245.056-14.491.091-6.833.032-13.665.033c-3.826,0-7.651-.012-11.477-.05-2.618-.027-5.237-.054-7.854-.158a19.16,19.16,0,0,1-9.057-2.211c-2.952-1.707-5.234-5.209-5.848-9.682A15.912,15.912,0,0,1,4.233,7.256c2.439-3.159,5.6-4.114,8.8-4.524,2.084-.262,4.183-.331,6.274-.419,3.428-.144,6.858-.228,10.287-.3q6.469-.132,12.938-.187,7.113-.07,14.227-.088t14.22,0q6.353.019,12.705.078c3.3.033,6.6.073,9.9.145a101.294,101.294,0,0,1,12.733.835c3.492.519,7.437,1.291,10.153,4.742a14.583,14.583,0,0,1,2.61,11.14" transform="translate(0 0.001)"/>
        </g>
     </g>
</svg>
