<svg xmlns="http://www.w3.org/2000/svg" width="68" height="68" viewBox="0 0 68 68">
    <g id="Map_Aktiv" transform="translate(-258 -773.147)">
        <g id="Icon-Kreis-Scriblle-groß" transform="translate(258 773.147)">
            <g id="Gruppe_6370">
                <path id="Pfad_45779" d="M643.589,120.791l-.1-.116a.5.5,0,0,0-.108.2l.209-.083" transform="translate(-583.975 -109.48)" fill="#ff8900"/>
                <path id="Pfad_45780" d="M632.686,621.941a2.983,2.983,0,0,0-.4.425c.136-.14.27-.283.4-.425" transform="translate(-573.902 -564.243)" fill="#ff8900"/>
                <path id="Pfad_45781" d="M634.3,597.924c-.1.118-.207.235-.312.353a.523.523,0,0,0,.312-.353" transform="translate(-575.447 -542.454)" fill="#ff8900"/>
                <path id="Pfad_45782" d="M601.452,92.474a1.882,1.882,0,0,0-1.167-.115q.721.618,1.4,1.282a3.433,3.433,0,0,0,1.136-.393c-.034-.035-.07-.068-.1-.1-.208,0-.2-.091-.192-.187-.077-.075-.154-.152-.231-.227a2.038,2.038,0,0,0-.411.019c-.669.2.218.393-.755.333.109-.416.62-.4,1.057-.455q-.185-.175-.372-.348c-.118.026-.216.048-.273.058Z" transform="translate(-544.859 -83.72)" fill="#ff8900"/>
                <path id="Pfad_45783" d="M619.855,111.282c.107.108.211.218.316.328.087-.154,0-.29-.316-.328" transform="translate(-562.622 -100.958)" fill="#ff8900"/>
                <path id="Pfad_45784" d="M626.758,117.612c-.244,0-.494-.012-.769,0q.247.264.487.533c.069-.151.157-.286.282-.532" transform="translate(-568.19 -106.696)" fill="#ff8900"/>
                <path id="Pfad_45785" d="M471.378,19.107l-.421.234.4-.276c-.123-.214-.7.163-1.165.1-.281.326.588.444,1.683.522l-.52.18a27.955,27.955,0,0,1,3.289,1.141c1.1-.324-.556-.407.117-.781l.5.067a.737.737,0,0,0,.25-.158c-.129-.059-.258-.119-.388-.176a3.713,3.713,0,0,0-1.105.165c.052-.157.533-.214.92-.243a29.248,29.248,0,0,0-3.118-1.131l-.461.315a.173.173,0,0,1,.017.042" transform="translate(-426.732 -17.01)" fill="#ff8900"/>
                <path id="Pfad_45786" d="M87.852,585.175q.236.24.476.476l.042-.013c-.057-.225,1.491-.742.081-.643.456-.082,1.622-.215,1.181-.057a.607.607,0,0,0,.379.006q-.465-.439-.911-.9a2.6,2.6,0,0,1-.874.043,1.185,1.185,0,0,1,.437-.5,31.981,31.981,0,0,1-2.329-2.791,6.527,6.527,0,0,0-.555,2.046q.941,1.169,1.987,2.244l.349.008a1.211,1.211,0,0,0-.263.08" transform="translate(-77.85 -526.916)" fill="#ff8900"/>
                <path id="Pfad_45787" d="M.945,34.192c.172-.031.378-.078.606-.133q-.059-1.128-.053-2.271a1.238,1.238,0,0,0-.306.037.963.963,0,0,1,.306-.194c.009-.994.053-2,.138-3l-.806.307.733-.41.081.012q.07-.818.173-1.64C3.866,11.575,17.16.97,33.313,1.217c0-.42-1.253-.288-.6-.9.477-.008.229-.041.27.108,1.252-.228.464.536.342.787q1.087.017,2.191.1a1.281,1.281,0,0,0,.532-.105.766.766,0,0,1-.1.14c.184.016.369.035.554.054a2.5,2.5,0,0,1,.811-.383c-.284-.186-.792.182-1.2-.02l1.37-.249L37.379.3c-.262.4-1.711.35-1.762.634L35.44.821c-.029,0-.056.005-.087.006L35.191.659l.248.162a1.9,1.9,0,0,0,.9-.37c.615-.06.83-.158.847-.263Q36.5.114,35.822.069l-.056.013c-.1.007-.1,0-.043-.02A33.562,33.562,0,0,0,20.1,2.929a.918.918,0,0,0,.152.2,1.679,1.679,0,0,1-.566-.015C9.741,7.654,2,16.715.292,27.341A41.9,41.9,0,0,0,.019,33.52l.028-.032c.287.184.362.487.9.7" transform="translate(0 0)" fill="#ff8900"/>
                <path id="Pfad_45788" d="M79.33,586.207l.148.084.092-.374a1.022,1.022,0,0,1-.24.29" transform="translate(-72.005 -531.561)" fill="#ff8900"/>
                <path id="Pfad_45789" d="M40.719,523.514l.274-.034q-.221-.361-.434-.726l0,.328-.337.162.3-.56q-.364-.63-.7-1.281l-.271.273c.012-.076.126-.177.264-.285-.143-.274-.283-.549-.418-.827l-.249.045c-.31.091-.654.219-.991.3-.121-.018.74-.409.327-.611a4.194,4.194,0,0,1-.852.4,35.139,35.139,0,0,0,2.126,3.972c.9-.46.877-.631.967-1.152" transform="translate(-34.152 -472.029)" fill="#ff8900"/>
                <path id="Pfad_45790" d="M71.047,575.368a.166.166,0,0,1,.065.068l.011-.057-.076-.011" transform="translate(-64.487 -521.991)" fill="#ff8900"/>
                <path id="Pfad_45791" d="M22.744,479.25l.443-.081c.083-.024.163-.045.241-.062a35.8,35.8,0,0,1-1.512-3.589,1.518,1.518,0,0,1-.61-.106l-.664.241a1.2,1.2,0,0,1-.215.078l.215-.078c.492-.237-.228-.547.907-.716l-.6.5a1.9,1.9,0,0,1,.9-.108c-.082-.232-.161-.465-.238-.7l-.259-.013c.158.29-.658.289-1.3.414q.509,1.607,1.153,3.149a1.569,1.569,0,0,0,.264-.038l.029-.085.017.075-.045.009-.114.334-.024,0c.072.168.143.336.218.5a1.477,1.477,0,0,0,1.066-.255c-.03.36.869.119.133.528" transform="translate(-18.197 -430.588)" fill="#ff8900"/>
                <path id="Pfad_45792" d="M5.072,401.981c-.17.057.134.114-.619-.038-.092.136-.47.519-.513.37.19-.223-.07-.236-.4-.195q.047.372.1.742a3.322,3.322,0,0,1,1.517-.3c-.029-.193-.059-.386-.086-.58" transform="translate(-3.213 -364.655)" fill="#ff8900"/>
                <path id="Pfad_45793" d="M.754,368.49a2.575,2.575,0,0,0,1.339-.089q-.018-.267-.032-.535a8.08,8.08,0,0,1-1.5.228c.008.161.019.322.029.483l.233-.294Z" transform="translate(-0.506 -333.739)" fill="#ff8900"/>
                <path id="Pfad_45794" d="M4.874,413.435l.021.142c.178-.092.3-.164-.021-.142" transform="translate(-4.424 -375.077)" fill="#ff8900"/>
                <path id="Pfad_45795" d="M1.29,378.244a2.348,2.348,0,0,1,1.263-.673s0-.008,0-.012c-.207-.027-.15-.082-.013-.146-.01-.116-.019-.232-.029-.348-.1.069-.338.177-.557.286a1,1,0,0,1-.316.357c-.207-.066.031-.213.316-.357.152-.314-.028-.619-.982-.5q.055.854.146,1.7l.917-.205Z" transform="translate(-0.881 -341.866)" fill="#ff8900"/>
                <path id="Pfad_45796" d="M202.847,670.342c-.9.24-.982-.572-.627-.595l.349-.026a.776.776,0,0,1-.146-.079,31.167,31.167,0,0,1-3.259,1.191c-.212.093-.289.109-.315.091-.172.051-.344.1-.517.147a.132.132,0,0,0,.041.041c-.038-.005-.077-.013-.117-.021a27.055,27.055,0,0,1-13.8.19,29.5,29.5,0,0,1-11.629-4.021c-.216.279.232.43-.027.65l-.9-.057a1.618,1.618,0,0,1-.491.4,29.816,29.816,0,0,0,3.743,1.937,2.1,2.1,0,0,0,.471-.255,1.42,1.42,0,0,1-.152-.064h-.029l-.577.065.418-.234c.017.066.09.122.188.17.139,0,.177.029.152.064.36.128.845.193.622.26l-.27-.108-.34.309a31.781,31.781,0,0,0,8.6,2.17,30.271,30.271,0,0,0,10.636.556l.041-.008-.008,0a31,31,0,0,0,5.876-1.329c.042-.038.082-.076.118-.112.021.013.015.04,0,.073q1.3-.437,2.564-.987a1.913,1.913,0,0,1,.279-.665c-.456.082-.808.106-.9.241m-16.8,2.1c.158-.018.239-.015.1.062a.14.14,0,0,1-.1-.062c-.317.037-.948.16-.761-.058.681-.38.659-.083.761.058" transform="translate(-155.584 -605.358)" fill="#ff8900"/>
                <path id="Pfad_45797" d="M645.85,165.077a5.105,5.105,0,0,1-1.276.053c.053.087.107.175.16.263a3.734,3.734,0,0,0,.594-.023c.584-.042.133.374-.2.7a34.309,34.309,0,0,1,3.978,22.147,30.516,30.516,0,0,1-6.892,15.839,2.306,2.306,0,0,0,.9.023l-.73.407a4.286,4.286,0,0,0,1.548-.315c.086-.114.173-.228.258-.343-.286,0-.7.053-.8-.076l.705-.049.223-.552c.145-.021.279-.046.407-.074q.572-.819,1.1-1.677c-.146.036-.261.023-.3-.122a1,1,0,0,0,.427-.09l.066-.109c0-.056-.021-.116.014-.168-.428-.277.118-.5.514-.8a.7.7,0,0,0-.108.249,34.378,34.378,0,0,0,4.163-12.615,34.948,34.948,0,0,0-5.154-23.376c-.362.3-.059.577.395.7" transform="translate(-582.918 -149.124)" fill="#ff8900"/>
                <path id="Pfad_45798" d="M636.734,128.951a1.953,1.953,0,0,1-.571,0l.187.224c.225-.049.407-.132.384-.229" transform="translate(-577.424 -116.988)" fill="#ff8900"/>
                <path id="Pfad_45799" d="M641.441,131.992c-.406.149-.1.266.3.157.032-.009.063-.018.1-.03-.032.012-.064.021-.1.03a.559.559,0,0,1-.425.115l0,0c.886.137.833.569,1.865.6q-.322-.434-.658-.856l-.09.113c-.563.144.242-.476-.992-.136" transform="translate(-582.041 -119.654)" fill="#ff8900"/>
                <path id="Pfad_45800" d="M71.681,584.059a.848.848,0,0,0,.1-.04.368.368,0,0,0-.185-.075c.027.039.055.076.082.115" transform="translate(-64.988 -529.771)" fill="#ff8900"/>
                <path id="Pfad_45801" d="M641.285,122.857l.665-.12q-.323-.4-.657-.789c-1.059.394.122.517-.008.909" transform="translate(-581.677 -110.635)" fill="#ff8900"/>
                <path id="Pfad_45802" d="M68.53,577.085a1.054,1.054,0,0,1-.308.18l.2.3c.037-.158.074-.316.106-.476" transform="translate(-61.923 -523.549)" fill="#ff8900"/>
                <path id="Pfad_45803" d="M607.8,598.595c.116-.143.233-.285.347-.43-.927.083-1.15.328-2.3.508l-.037.042c.142.138.217.169-.293.37l-.023-.028c-.111.119-.221.238-.334.355l.749-.2-.224.554-.6-.279q-.929.965-1.931,1.849l.3.015c-.062-.226.625-.35,1.086-.432-.353-.05.3-.35-.2-.278a.892.892,0,0,1-.205.076l.105-.06.1-.016c.311-.165.233-.452.646-.827l-.174.266c1.288-.232,1.093-.092,1.99-.306q.511-.574,1-1.172l-.007,0,.012,0" transform="translate(-547.465 -542.673)" fill="#ff8900"/>
                <path id="Pfad_45804" d="M120.1,631.973a.42.42,0,0,1-.061.114l-.11.206c0,.006-.01.013-.014.019a.61.61,0,0,0,.3-.868q-.407-.259-.8-.531l-.142-.036a.357.357,0,0,1,.011-.055q-.34-.236-.674-.48a.773.773,0,0,0-.288.285l.191-.357a30.3,30.3,0,0,1-2.535-2.1l-.419.65a2.252,2.252,0,0,1-1.03-.284l-.446.146c.143.138.285.277.431.413a2.209,2.209,0,0,0,.251-.091l-.049.276.008.007c.458-.084.768-.255,1.035-.147-.61.2-.6.413-.506.622q.826.723,1.706,1.39a2.25,2.25,0,0,0,.294-.244,1.727,1.727,0,0,0-.2.313c.061.046.124.09.186.136.273-.088.66-.343.183.021l-.069.062q.293.214.592.421l.375-.443-.116.371-.172.132q.615.423,1.254.817c.084-.14.579-.39.766-.651a.42.42,0,0,0,.061-.114" transform="translate(-103.545 -569.898)" fill="#ff8900"/>
                <path id="Pfad_45805" d="M530.252,38.928l.731-.409-.008.436c-.016-.06-.319-.065-.769.072a28.036,28.036,0,0,1,2.987,1.692c.295-.184.473-.342.732-.488-.23.042-.455.084-.479.008a4.717,4.717,0,0,1,.743-.16,30.506,30.506,0,0,0-3.784-2.212l-.7.331c1.25-.265-.2.627.543.729" transform="translate(-480.8 -34.355)" fill="#ff8900"/>
                <path id="Pfad_45806" d="M476.558,17.306l.828-.276-.32-.09a1.41,1.41,0,0,1-.508.366" transform="translate(-432.556 -15.368)" fill="#ff8900"/>
                <path id="Pfad_45807" d="M568.7,69.418l.011.007a.093.093,0,0,0-.011-.007" transform="translate(-516.189 -62.978)" fill="#ff8900"/>
                <path id="Pfad_45808" d="M520.89,42.348a2.047,2.047,0,0,1-.389.129q.239.1.476.207c.172-.139.221-.294-.087-.336" transform="translate(-472.442 -38.419)" fill="#ff8900"/>
                <path id="Pfad_45809" d="M80.458,566.313a.619.619,0,0,1,.128.043l.011-.009-.032-.048c-.036,0-.072.007-.107.014" transform="translate(-73.029 -513.763)" fill="#ff8900"/>
                <path id="Pfad_45810" d="M87.438,576.246l.152-.03-.057-.077c-.031.037-.063.073-.1.108" transform="translate(-79.365 -522.689)" fill="#ff8900"/>
                <path id="Pfad_45811" d="M8.3,417.943c-.03-.1-.061-.193-.091-.291l-.8-.043c1.023-.712-.15-1.164.325-1.684q-.388-1.543-.648-3.137c-.417.034-.864.053-1.214.1l-.258.4H5.6q.238,1.48.583,2.928a.177.177,0,0,1,.1.219l-.047.01q.283,1.158.636,2.289l.984-.774a1.6,1.6,0,0,1,.449-.019" transform="translate(-5.079 -374.493)" fill="#ff8900"/>
                <path id="Pfad_45812" d="M512.32,654.672c.774-.043,1.565.355.894.811l.814-.108a.3.3,0,0,0-.053.132q1.379-.66,2.692-1.451a10.167,10.167,0,0,1,2.14-1.594c-.876-.508-.139-1.028-.224-1.479a32.976,32.976,0,0,1-6.264,3.69" transform="translate(-465.016 -590.59)" fill="#ff8900"/>
            </g>
        </g>
        <circle id="Ellipse_811" cx="30" cy="30" r="30" transform="translate(262 777)" fill="#ff8900"/>
        <g id="Location_dark" transform="translate(278.336 795.285)">
            <path id="Pfad_82187" d="M8.983,21.352c-2.814.675-5.608,1.412-8.406,2.155l.95.723c-.169-6.23.2-12.49.066-18.73a8.05,8.05,0,0,0-.065-2.283c.144.19-.712.237-.091.233a3.155,3.155,0,0,0,.517-.112c1-.2,2.012-.366,3.019-.54a8.442,8.442,0,0,0,1.683-.433,7.842,7.842,0,0,1,2.656-.839.75.75,0,0,0,0-1.5A8.282,8.282,0,0,0,6.357.881a10,10,0,0,1-2,.508c-1.056.182-2.125.335-3.169.58C.307,2.177.043,2.54.027,3.459-.036,6.965.109,10.495.108,14c0,3.4-.173,6.826-.081,10.226a.757.757,0,0,0,.768.747.737.737,0,0,0,.181-.024c2.8-.742,5.591-1.48,8.406-2.155.938-.225.541-1.671-.4-1.446" transform="translate(0 0)" fill="#242444"/>
            <path id="Pfad_82188" d="M18.392,3.49a23.018,23.018,0,0,1,4.126-.757c1.166-.206,2.21-.778,3.349-1.091a2.862,2.862,0,0,0,.5-.118l-.576-.46V1.1A4.322,4.322,0,0,0,25.8,2.149c-.011,1.08-.055,2.16-.069,3.241-.009.742-.016,1.484-.025,2.226q-.054,4.332-.107,8.662c-.01.79-.029,1.579-.014,2.369.012.563.036,1.126.056,1.689.008.256-.108,1.15.025,1.326,0,.057-.005.114-.007.171l.467-.475a1.787,1.787,0,0,0-.289.069,5.45,5.45,0,0,0-1.075.258c-2.351.564-4.682,1.2-7.019,1.822a.751.751,0,0,0,.4,1.447c2.263-.6,4.52-1.223,6.8-1.769a9.366,9.366,0,0,0,1.61-.386c.746-.335.629-1.161.613-1.857-.031-1.326-.086-2.647-.07-3.973q.058-4.635.115-9.269c.011-.862.016-1.725.031-2.587.018-1.073.064-2.146.066-3.218,0-.544.122-1.434-.446-1.765-.683-.4-1.922.227-2.554.457a16.791,16.791,0,0,1-1.738.621c-1.6.392-3.394.34-4.925.987-.886.374-.123,1.666.757,1.3" transform="translate(0 0)" fill="#242444"/>
            <path id="Pfad_82189" d="M8.638,5.9c.067,5.391.02,10.792.13,16.18a.763.763,0,0,0,.55.723c2.815.675,5.609,1.412,8.406,2.155a.758.758,0,0,0,.925-.542.788.788,0,0,0,.024-.181c.09-3.294-.081-6.611-.108-9.907-.029-3.413,0-6.819.109-10.231.023-.72.154-1.584-.594-1.96a10.6,10.6,0,0,0-2.8-.581,20.134,20.134,0,0,1-2.271-.413c-.986-.294-1.9-.8-2.916-1.021C9.024-.117,8.607.312,8.567,1.351c-.059,1.512.065,3.033.071,4.545a.75.75,0,1,0,1.5,0c0-.764-.024-1.527-.043-2.291a10.388,10.388,0,0,0-.031-2.159q0-.175.012-.351-.027-.408-.579.429a3.622,3.622,0,0,0,.718.184c.62.189,1.225.426,1.83.659a12.02,12.02,0,0,0,2.353.548c.643.111,1.286.221,1.927.343a7.205,7.205,0,0,0,.784.158c.209.015.575.275.234-.092-.327-.352-.081-.129-.154.109a4.256,4.256,0,0,0-.026.937c-.035.94-.071,1.88-.088,2.821-.037,1.957-.032,3.914-.02,5.871.024,3.716.219,7.456.118,11.169l.95-.723c-2.8-.743-5.591-1.48-8.406-2.155l.551.723c-.11-5.388-.063-10.789-.13-16.18a.75.75,0,0,0-1.5,0" transform="translate(0 0)" fill="#242444"/>
        </g>
    </g>
</svg>
