<svg id="Location" xmlns="http://www.w3.org/2000/svg" width="27.319" height="24.983" viewBox="0 0 27.319 24.983">
    <path id="Pfad_82187" d="M8.983,21.352c-2.814.675-5.608,1.412-8.406,2.155l.95.723c-.169-6.23.2-12.49.066-18.73a8.05,8.05,0,0,0-.065-2.283c.144.19-.712.237-.091.233a3.155,3.155,0,0,0,.517-.112c1-.2,2.012-.366,3.019-.54a8.442,8.442,0,0,0,1.683-.433,7.842,7.842,0,0,1,2.656-.839.75.75,0,0,0,0-1.5A8.282,8.282,0,0,0,6.357.881a10,10,0,0,1-2,.508c-1.056.182-2.125.335-3.169.58C.307,2.177.043,2.54.027,3.459-.036,6.965.109,10.495.108,14c0,3.4-.173,6.826-.081,10.226a.757.757,0,0,0,.768.747.737.737,0,0,0,.181-.024c2.8-.742,5.591-1.48,8.406-2.155.938-.225.541-1.671-.4-1.446" transform="translate(0 0)" fill="#ff8900"/>
    <path id="Pfad_82188" d="M18.392,3.49a23.018,23.018,0,0,1,4.126-.757c1.166-.206,2.21-.778,3.349-1.091a2.862,2.862,0,0,0,.5-.118l-.576-.46V1.1A4.322,4.322,0,0,0,25.8,2.149c-.011,1.08-.055,2.16-.069,3.241-.009.742-.016,1.484-.025,2.226q-.054,4.332-.107,8.662c-.01.79-.029,1.579-.014,2.369.012.563.036,1.126.056,1.689.008.256-.108,1.15.025,1.326,0,.057-.005.114-.007.171l.467-.475a1.787,1.787,0,0,0-.289.069,5.45,5.45,0,0,0-1.075.258c-2.351.564-4.682,1.2-7.019,1.822a.751.751,0,0,0,.4,1.447c2.263-.6,4.52-1.223,6.8-1.769a9.366,9.366,0,0,0,1.61-.386c.746-.335.629-1.161.613-1.857-.031-1.326-.086-2.647-.07-3.973q.058-4.635.115-9.269c.011-.862.016-1.725.031-2.587.018-1.073.064-2.146.066-3.218,0-.544.122-1.434-.446-1.765-.683-.4-1.922.227-2.554.457a16.791,16.791,0,0,1-1.738.621c-1.6.392-3.394.34-4.925.987-.886.374-.123,1.666.757,1.3" transform="translate(0 0)" fill="#ff8900"/>
    <path id="Pfad_82189" d="M8.638,5.9c.067,5.391.02,10.792.13,16.18a.763.763,0,0,0,.55.723c2.815.675,5.609,1.412,8.406,2.155a.758.758,0,0,0,.925-.542.788.788,0,0,0,.024-.181c.09-3.294-.081-6.611-.108-9.907-.029-3.413,0-6.819.109-10.231.023-.72.154-1.584-.594-1.96a10.6,10.6,0,0,0-2.8-.581,20.134,20.134,0,0,1-2.271-.413c-.986-.294-1.9-.8-2.916-1.021C9.024-.117,8.607.312,8.567,1.351c-.059,1.512.065,3.033.071,4.545a.75.75,0,1,0,1.5,0c0-.764-.024-1.527-.043-2.291a10.388,10.388,0,0,0-.031-2.159q0-.175.012-.351-.027-.408-.579.429a3.622,3.622,0,0,0,.718.184c.62.189,1.225.426,1.83.659a12.02,12.02,0,0,0,2.353.548c.643.111,1.286.221,1.927.343a7.205,7.205,0,0,0,.784.158c.209.015.575.275.234-.092-.327-.352-.081-.129-.154.109a4.256,4.256,0,0,0-.026.937c-.035.94-.071,1.88-.088,2.821-.037,1.957-.032,3.914-.02,5.871.024,3.716.219,7.456.118,11.169l.95-.723c-2.8-.743-5.591-1.48-8.406-2.155l.551.723c-.11-5.388-.063-10.789-.13-16.18a.75.75,0,0,0-1.5,0" transform="translate(0 0)" fill="#ff8900"/>
    <rect id="Rechteck_4393" width="27.319" height="24.983" transform="translate(0 0)" fill="none"/>
</svg>
