<svg xmlns="http://www.w3.org/2000/svg" width="380" height="69.086" viewBox="0 0 380 69.086" preserveAspectRatio="none">
    <g id="Notificatoin" transform="translate(0 0.179)">
        <path id="Pfad_45839" data-name="Pfad 45839" d="M1.139,57.361c-.107,7.253,4.073,10.758,20.8,10.758s262.726-.3,326.328-.108c30.23.241,30.873-2.9,30.873-8.945-1.09-10.657-.88-49.041-.88-52.956S376,1.033,358.317,1.033c-34.757-.144-302.525.242-333.167.242-24.879,0-24,2.309-24.012,12.519s.166,32.309,0,43.568" transform="translate(-0.137 -0.212)" fill="#ff8900"/>
        <path id="Pfad_45840" data-name="Pfad 45840" d="M1.139,57.361c-.107,7.253,4.073,10.758,20.8,10.758s262.726-.3,326.328-.108c30.23.241,30.873-2.9,30.873-8.945-1.09-10.657-.88-49.041-.88-52.956S376,1.033,358.317,1.033c-34.757-.144-302.525.242-333.167.242C3.86.571,1.062,4.553,1.139,14.36S1.305,46.1,1.139,57.361Z" transform="translate(-0.137 -0.212)" fill="none" stroke="#000" stroke-width="2"/>
    </g>
</svg>
