<svg xmlns="http://www.w3.org/2000/svg" width="18.667" height="21.709" viewBox="0 0 18.667 21.709">
    <path id="Pfad_82170" d="M30.193,12.094c.695-.767-.222-1.619-1.124-.637-4.41,4.8-16.7,18.413-17.14,18.932s.137,1.2.609.963S29.06,13.346,30.193,12.094" transform="translate(-11.77 -9.693)" fill="#ff8900"/>
    <path id="Pfad_82171" d="M25.315,26.243c.114-3.625-.082-7.263-.232-10.884q-.052-1.251-.1-2.506a13,13,0,0,0-.1-2.257,1.131,1.131,0,0,0-1.336-.88,1.179,1.179,0,0,0-.315.115c-.677.4-1.108,1.6-1.506,2.234-.589.939-1.2,1.872-1.876,2.749a12.139,12.139,0,0,1-1.167,1.335c-.028.027-.1.078-.172.127a17.065,17.065,0,0,0-2.324-.814,12.5,12.5,0,0,0-2.12-.665.773.773,0,0,0-.939.557.877.877,0,0,0-.024.176,82.5,82.5,0,0,1-.149,9.316.615.615,0,0,0,.525.7.752.752,0,0,0,.449.037l-.007,0,4.226-1.089c1.438,1.42,2.889,2.838,4.424,4.153.5.425,1.372,1.377,2.108.934.8-.477.613-2.547.637-3.335m-5.779-2.517a7.482,7.482,0,0,0-.623-.611c-.487-.372-1.006-.128-1.535.01l-2.846.733q.221-3.645.118-7.3c1.127.336,2.244.708,3.336,1.147a1.345,1.345,0,0,0,1.467-.206,11.8,11.8,0,0,0,1.954-2.248c.632-.855,1.211-1.744,1.77-2.646.1-.12.177-.249.263-.376.066,1.791.147,3.581.217,5.372.077,2.014.146,4.029.163,6.049.007.864.005,1.728-.022,2.592-.013.437-.075.889-.113,1.335-.35-.292-.7-.58-1.032-.9-1.059-.966-2.091-1.959-3.117-2.958" transform="translate(-11.77 -9.693)" fill="#ff8900"/>
</svg>
