<svg xmlns="http://www.w3.org/2000/svg" xmlns:xlink="http://www.w3.org/1999/xlink" width="13.73" height="22.16" viewBox="0 0 13.73 22.16">
    <defs>
        <clipPath id="clip-path">
            <rect id="Rechteck_3552" data-name="Rechteck 3552" width="13.73" height="22.16" fill="#ff8900"/>
        </clipPath>
    </defs>
    <g id="Lautstärke" transform="translate(-14.27 -11.42)">
        <g id="Gruppe_6241" data-name="Gruppe 6241" transform="translate(14.27 11.42)">
            <g id="Gruppe_6240" data-name="Gruppe 6240" clip-path="url(#clip-path)">
                <path id="Pfad_9666" data-name="Pfad 9666" d="M1.071,17.607l5.154-1.328-.82-.217C7.11,17.748,8.829,19.439,10.652,21c.551.471,1.52,1.525,2.335,1.035.881-.529.679-2.821.706-3.694.126-4.015-.091-8.045-.257-12.056Q13.378,4.9,13.321,3.51a14.292,14.292,0,0,0-.109-2.5A1.253,1.253,0,0,0,11.384.163c-.75.439-1.228,1.77-1.669,2.474C9.063,3.677,8.388,4.71,7.637,5.682A13.427,13.427,0,0,1,6.345,7.16c-.088.085-.587.374-.165.257.349-.1.165-.013-.014-.111A18.815,18.815,0,0,0,3.58,6.4a13.739,13.739,0,0,0-2.348-.737.855.855,0,0,0-1.066.812A91.519,91.519,0,0,1,0,16.794c-.1,1.08,1.589,1.073,1.685,0A91.519,91.519,0,0,0,1.85,6.475L.784,7.287a42.44,42.44,0,0,1,4.791,1.6A1.491,1.491,0,0,0,7.2,8.659,13.066,13.066,0,0,0,9.364,6.169c.7-.947,1.342-1.932,1.961-2.931a5.988,5.988,0,0,0,.829-1.375l.118-.2q-.808-.654-.7-.061a2.58,2.58,0,0,0,.027.8c.075,2.124.175,4.247.257,6.37.086,2.231.162,4.463.181,6.7.008.957.006,1.914-.024,2.871-.023.738-.177,1.514-.156,2.247,0,.08-.081.236-.055.31.134.387.811-.707,1.008-.355-.048-.086-.309-.2-.391-.262a21.093,21.093,0,0,1-1.675-1.454c-1.172-1.069-2.316-2.169-3.452-3.276a8.262,8.262,0,0,0-.69-.677c-.539-.412-1.114-.141-1.7.011l-4.271,1.1a.843.843,0,0,0,.448,1.625" transform="translate(0 0)" fill="#ff8900"/>
            </g>
        </g>
    </g>
</svg>
