<svg xmlns="http://www.w3.org/2000/svg" width="571" height="571" viewBox="0 0 580 580">
    <g id="Gruppe_6769">
        <path id="Pfad_82194" d="M460.379,317.784l-40.155-9.16L339.9,290.282l-40.165-9.16-33.495-7.647,59.066-47.1,32.2-25.691,32.222-25.688,32.2-25.69,32.21-25.677L483.755,100a283.839,283.839,0,0,1,60.083,175.161,287.011,287.011,0,0,1-6.367,60.223Z" transform="matrix(0.899, 0.438, -0.438, 0.899, 178.986, -69.791)" fill="#242444"/>
        <path id="Pfad_82195" d="M270.3,543.821a282.538,282.538,0,0,1-120.73-26.716L219.644,371.6l17.879-37.112,17.87-37.124L270.3,266.4l14.911,30.959,17.87,37.121,35.758,74.246,17.87,37.122,34.322,71.261A282.677,282.677,0,0,1,270.3,543.821" transform="matrix(0.899, 0.438, -0.438, 0.899, 161.514, -60.12)" fill="#242444"/>
        <path id="Pfad_82196" d="M6.368,335.388a287.289,287.289,0,0,1,10.111-156.05A283.565,283.565,0,0,1,60.084,100l29.61,23.623,32.213,25.68,32.2,25.687,32.224,25.692,32.2,25.688,59.065,47.1L244.1,281.122l-40.162,9.16-80.328,18.342-40.153,9.16Z" transform="matrix(0.899, 0.438, -0.438, 0.899, 155.472, -81.26)" fill="#242444"/>
        <path id="Pfad_82197" d="M216.9,231.047l-32.2-25.687-32.224-25.692-32.2-25.687L88.059,128.3,58.451,104.679A283.665,283.665,0,0,1,275.961,0V278.149Z" transform="matrix(0.899, 0.438, -0.438, 0.899, 164.942, -87.574)" fill="#242444"/>
        <path id="Pfad_82198" d="M157.635,514.5A285.251,285.251,0,0,1,7.126,325.718l77.1-17.605,80.328-18.331,40.152-9.171,40.164-9.16,33.493-7.648-14.91,30.958-17.87,37.124L227.7,368.995Z" transform="matrix(0.899, 0.438, -0.438, 0.899, 149.045, -66.486)" fill="#242444"/>
        <path id="Pfad_82199" d="M351.315,443.251l-17.87-37.122-35.758-74.246-17.87-37.121L264.906,263.8,298.4,271.45l40.166,9.16,80.325,18.342,40.155,9.16,77.1,17.605A285.3,285.3,0,0,1,385.635,514.509Z" transform="matrix(0.899, 0.438, -0.438, 0.899, 171.812, -55.381)" fill="#242444"/>
        <path id="Pfad_82200" d="M262.5,0A283.667,283.667,0,0,1,480.012,104.679L450.4,128.3l-32.21,25.677-32.2,25.69-32.221,25.69-32.2,25.69-59.064,47.1Z" transform="matrix(0.899, 0.438, -0.438, 0.899, 182.963, -78.784)" fill="#242444"/>
    </g>
</svg>
