<svg xmlns="http://www.w3.org/2000/svg" viewBox="0 0 1200 1200">
    <defs>
        <style>.cls-1{fill:#3a3a5e;}.cls-3{fill:#5D5D95;}.cls-2{fill:#ff8900;}</style>
    </defs>
    <g>
        <g id="Uhr">
            <circle id="Background" class="cls-3" cx="600" cy="600" r="600" fill="transparent" stroke-width="32"  stroke-dasharray="0 120" stroke-dashoffset="25" />
            <g id="Innenkreis">
                <path class="cls-2"
                      d="M600,106a494.13,494.13,0,0,1,192.29,949.18A494.13,494.13,0,0,1,407.71,144.82,490.9,490.9,0,0,1,600,106m0-6c-276.14,0-500,223.86-500,500s223.86,500,500,500,500-223.86,500-500S876.14,100,600,100Z"/>
            </g>
            <g id="Außenkreis">
                <path class="cls-2"
                      d="M600,6A591.33,591.33,0,0,1,932.11,107.44a595.64,595.64,0,0,1,215.21,261.35,593.27,593.27,0,0,1-54.76,563.32,595.64,595.64,0,0,1-261.35,215.21,593.27,593.27,0,0,1-563.32-54.76A595.64,595.64,0,0,1,52.68,831.21a593.27,593.27,0,0,1,54.76-563.32A595.64,595.64,0,0,1,368.79,52.68,590.16,590.16,0,0,1,600,6m0-6C268.63,0,0,268.63,0,600s268.63,600,600,600,600-268.63,600-600S931.37,0,600,0Z"/>
            </g>
        </g>
    </g>
</svg>