<svg xmlns="http://www.w3.org/2000/svg" viewBox="0 0 1200 1200"><defs><style>.cls-1{fill:#ff8900;}</style></defs><g id="Ebene_2" data-name="Ebene 2"><g id="Uhr"><g id="Außenkreis"><path class="cls-1" d="M600,6A591.33,591.33,0,0,1,932.11,107.44a595.64,595.64,0,0,1,215.21,261.35,593.27,593.27,0,0,1-54.76,563.32,595.64,595.64,0,0,1-261.35,215.21,593.27,593.27,0,0,1-563.32-54.76A595.64,595.64,0,0,1,52.68,831.21a593.27,593.27,0,0,1,54.76-563.32A595.64,595.64,0,0,1,368.79,52.68,590.16,590.16,0,0,1,600,6m0-6C268.63,0,0,268.63,0,600s268.63,600,600,600,600-268.63,600-600S931.37,0,600,0Z"/></g><circle id="Personwechsel" class="cls-1" cx="1080.29" cy="333.84" r="35.87"/></g></g></svg>